<?xml version="1.0" encoding="utf-8"?>
<!-- Generator: Adobe Illustrator 16.0.0, SVG Export Plug-In . SVG Version: 6.00 Build 0)  -->
<!DOCTYPE svg PUBLIC "-//W3C//DTD SVG 1.1//EN" "http://www.w3.org/Graphics/SVG/1.1/DTD/svg11.dtd">
<svg version="1.1" id="Layer_1" xmlns="http://www.w3.org/2000/svg" xmlns:xlink="http://www.w3.org/1999/xlink" x="0px" y="0px"
	 width="128px" height="128px" viewBox="0 0 128 128" enable-background="new 0 0 128 128" xml:space="preserve">
<g>
	
		<linearGradient id="SVGID_1_" gradientUnits="userSpaceOnUse" x1="333.4014" y1="-286.3867" x2="356.9463" y2="-361.9493" gradientTransform="matrix(1 0 0 -1 -290 -251)">
		<stop  offset="0" style="stop-color:#607D8B"/>
		<stop  offset="0.4004" style="stop-color:#57727F"/>
		<stop  offset="1" style="stop-color:#455A64"/>
	</linearGradient>
	<path fill="url(#SVGID_1_)" d="M119.04,73.55c-1.44-2.68-2.99-4.84-4.61-6.239c0,0,0,0,0-0.011c-0.06-0.06-0.13-0.1-0.189-0.159
		c-0.131-0.111-0.26-0.221-0.391-0.311c-0.229-0.17-0.459-0.33-0.689-0.471c-0.439-0.26-0.87-0.549-1.29-0.85
		c-0.12-0.08-0.24-0.17-0.351-0.26c-7.1-5.26-12.5-15.94-16.52-22.86c-1.83-3.78-3.65-6.46-5.439-6.46
		c-0.371,0-0.811,0.19-1.291,0.48c-1.06,0.63-2.39,1.94-3.93,3.78l0,0C79.07,36.9,78.9,19.22,74.26,19.22
		c-2.3,0-4.09-6.19-6.35-10.67c-0.01-0.01-0.01-0.02-0.02-0.03c-0.17,0.21-0.17,0.21,0,0c-0.32-0.63-0.641-1.22-0.98-1.76
		c-0.67-1.08-1.391-1.93-2.18-2.39C64.34,4.14,63.93,4.01,63.49,4c-0.82-0.02-1.75,0.5-2.76,1.43c-0.76,0.7-1.57,1.62-2.4,2.73
		c-0.56,0.74-1.13,1.55-1.71,2.43c-0.29,0.44-0.58,0.89-0.87,1.36c-0.59,0.93-1.18,1.92-1.78,2.95
		c-5.95,10.28-12.1,24.38-13.87,26.26c-0.51,0.54-1.02,0.95-1.55,1.27c-1.57,0.97-3.21,1.12-4.77,1.25c-0.7,0.06-1.38,0.1-2.03,0.22
		c-1.03,0.18-2.02,0.58-2.94,1.18c-0.46,0.3-0.9,0.65-1.31,1.05c-0.21,0.2-0.41,0.41-0.6,0.64c-0.19,0.22-0.38,0.46-0.56,0.71
		c-0.19,0.26-0.38,0.53-0.57,0.81c-0.05,0.07-0.1,0.15-0.15,0.23c-0.15,0.22-0.3,0.44-0.45,0.68c-0.05,0.08-0.1,0.16-0.15,0.24
		c-0.16,0.25-0.33,0.52-0.5,0.78c-0.04,0.06-0.07,0.11-0.11,0.17c-0.18,0.3-0.37,0.6-0.55,0.92c-0.02,0.04-0.04,0.07-0.06,0.11l0,0
		c-0.17,0.28-0.34,0.57-0.5,0.86l0,0c-4.43,7.69-9.74,19.58-14.49,31.05C5.64,90.91,4,99.05,4,107.279V116h75.6H124V93.87
		C124,86.8,122.4,79.77,119.04,73.55z M87.811,65.08c-0.101,0.17-0.181,0.32-0.281,0.48l0,0C87.63,65.4,87.71,65.25,87.811,65.08z
		 M87.42,106.62c-0.8,0.92-1.59,1.87-2.38,2.8C85.84,108.48,86.62,107.54,87.42,106.62c0.38-0.431,0.74-0.86,1.1-1.28
		C88.17,105.76,87.8,106.18,87.42,106.62z M87.48,76.07c0.33,0.27,0.699,0.52,1.09,0.76C88.18,76.59,87.811,76.34,87.48,76.07z
		 M92.48,44.74c-0.09-0.37-0.181-0.74-0.28-1.1C92.3,44,92.391,44.37,92.48,44.74c0.039,0.17,0.08,0.34,0.119,0.51
		C92.561,45.08,92.52,44.91,92.48,44.74z M99.061,88.311c0.109-0.531,0.17-1.021,0.189-1.49C99.23,87.29,99.16,87.779,99.061,88.311
		z"/>
	<g>
		<path fill="none" d="M91.45,101.77c-1.181,1.5-2.521,3.121-4.021,4.851c-0.8,0.92-1.59,1.87-2.38,2.8
			c0.79-0.93,1.58-1.88,2.38-2.8C88.93,104.891,90.27,103.27,91.45,101.77z"/>
		<path fill="none" d="M99.25,86.15c-0.02-0.44-0.07-0.851-0.16-1.24C99.18,85.3,99.24,85.71,99.25,86.15z"/>
		<path fill="none" d="M98.189,82.859c-0.209-0.299-0.439-0.58-0.699-0.85C97.75,82.279,97.98,82.561,98.189,82.859z"/>
		<path fill="none" d="M99.061,88.311c0.109-0.531,0.17-1.021,0.189-1.49C99.23,87.29,99.16,87.779,99.061,88.311z"/>
		<path fill="none" d="M97.85,91.87c0.45-0.99,0.791-1.899,1.01-2.74C98.63,89.96,98.3,90.87,97.85,91.87z"/>
		<path fill="none" d="M91.45,101.77c3.149-4.01,5.2-7.25,6.399-9.899C96.641,94.52,94.6,97.76,91.45,101.77z"/>
		
			<linearGradient id="SVGID_2_" gradientUnits="userSpaceOnUse" x1="-165.7207" y1="-303.9233" x2="-144.3861" y2="-373.2609" gradientTransform="matrix(-1 0 0 -1 -65 -251)">
			<stop  offset="0" style="stop-color:#78909C"/>
			<stop  offset="0.427" style="stop-color:#6C8490"/>
			<stop  offset="1" style="stop-color:#546E7A"/>
		</linearGradient>
		<path fill="url(#SVGID_2_)" d="M79.6,116L79.6,116c1.791-2.21,3.601-4.41,5.45-6.58C83.2,111.59,81.38,113.79,79.6,116z"/>
		
			<linearGradient id="SVGID_3_" gradientUnits="userSpaceOnUse" x1="-140.998" y1="-309.9409" x2="-147.998" y2="-369.4409" gradientTransform="matrix(-1 0 0 -1 -65 -251)">
			<stop  offset="0" style="stop-color:#546E7A"/>
			<stop  offset="0.3702" style="stop-color:#4C636E"/>
			<stop  offset="1" style="stop-color:#37474F"/>
		</linearGradient>
		<path fill="url(#SVGID_3_)" d="M79.6,116L79.6,116c1.791-2.21,3.601-4.41,5.45-6.58C83.2,111.59,81.38,113.79,79.6,116z"/>
	</g>
	
		<linearGradient id="SVGID_4_" gradientUnits="userSpaceOnUse" x1="-133.8599" y1="-254.0005" x2="-133.8599" y2="-325.3913" gradientTransform="matrix(-1 0 0 -1 -65 -251)">
		<stop  offset="0" style="stop-color:#E1F5FE"/>
		<stop  offset="0.3507" style="stop-color:#D5F1FD"/>
		<stop  offset="0.9908" style="stop-color:#B4E5FC"/>
		<stop  offset="1" style="stop-color:#B3E5FC"/>
	</linearGradient>
	<path fill="url(#SVGID_4_)" d="M23.78,51.4L23.78,51.4c0.02-0.04,0.04-0.07,0.06-0.11c0.19-0.31,0.37-0.62,0.55-0.92
		c0.04-0.06,0.07-0.11,0.11-0.17c0.17-0.27,0.33-0.53,0.5-0.78c0.05-0.08,0.1-0.16,0.15-0.24c0.15-0.23,0.3-0.46,0.45-0.68
		c0.05-0.07,0.1-0.15,0.15-0.23c0.19-0.28,0.38-0.55,0.57-0.81c0.18-0.25,0.37-0.48,0.56-0.71c0.19-0.22,0.4-0.44,0.6-0.64
		c0.41-0.4,0.85-0.75,1.31-1.05c0.92-0.6,1.91-1,2.94-1.18c0.66-0.11,1.34-0.16,2.03-0.22c1.57-0.12,3.2-0.28,4.77-1.25
		c0.52-0.32,1.04-0.74,1.55-1.27c1.77-1.88,7.92-15.98,13.87-26.26c0.6-1.03,1.19-2.02,1.78-2.95c0.29-0.47,0.59-0.92,0.87-1.36
		c0.58-0.88,1.15-1.69,1.71-2.43c0.84-1.1,1.64-2.03,2.4-2.73C61.75,4.5,62.68,3.98,63.49,4c0.43,0.01,0.84,0.14,1.24,0.37
		c0.789,0.46,1.51,1.32,2.18,2.39c0.34,0.54,0.66,1.13,0.98,1.76c-0.17,0.21-0.17,0.21,0,0c0.01,0.01,0.01,0.02,0.02,0.03
		c2.26,4.49,4.05,10.67,6.35,10.67c4.641,0,4.811,17.69,10.08,20.97l0,0c1.53-1.84,2.86-3.15,3.93-3.78
		c0.48-0.29,0.92-0.48,1.291-0.48c1.789,0,3.609,2.68,5.439,6.46c4.33,7.44,10.24,19.25,18.17,23.969
		c0.43,0.261,0.85,0.57,1.27,0.931c-1.52,3.03-4.149,6.239-8.18,4.92c-7-2.3-10.449,0.11-14.01,4.71
		c-0.4,0.51-0.83,0.891-1.29,1.189c-3.63,2.4-8.84-1.369-10.88-2.799c-2.26-1.58-10.08-3.49-17.11-0.59
		c-0.02,0.01-0.25,0.09-0.34,0.129c-7.12,3.101-11.6-6.89-11.14-17.91c0.46-11.02-5.4-9.87-9.07-7.12
		c-2.83,2.12-13.96,2.88-19.14,2.44C23.44,51.97,23.61,51.69,23.78,51.4z"/>
	
		<radialGradient id="SVGID_5_" cx="386.5" cy="-301" r="37.8319" gradientTransform="matrix(1 0 0 -1 -290 -251)" gradientUnits="userSpaceOnUse">
		<stop  offset="0" style="stop-color:#546E7A"/>
		<stop  offset="0.3702" style="stop-color:#4C636E"/>
		<stop  offset="1" style="stop-color:#37474F"/>
	</radialGradient>
	<path fill="url(#SVGID_5_)" d="M85.04,109.42c0.79-0.93,1.58-1.88,2.38-2.8c1.51-1.729,2.84-3.341,4.02-4.851
		c3.15-4.01,5.201-7.25,6.4-9.899c0.45-0.99,0.79-1.899,1.01-2.74c0.08-0.28,0.141-0.55,0.2-0.81c0.11-0.53,0.171-1.021,0.19-1.49
		c0.01-0.23,0.01-0.46,0-0.68c-0.02-0.44-0.07-0.851-0.16-1.24c-0.18-0.77-0.49-1.45-0.9-2.051c-0.209-0.299-0.439-0.58-0.699-0.85
		c-0.771-0.8-1.721-1.449-2.771-2.029c-0.521-0.291-1.06-0.57-1.61-0.83c-0.72-0.351-1.449-0.69-2.16-1.03l0,0l0,0
		c-0.359-0.17-0.719-0.351-1.06-0.53c-0.33-0.17-0.659-0.35-0.97-0.54c-0.12-0.069-0.23-0.14-0.35-0.22
		c-0.381-0.24-0.761-0.49-1.09-0.76c-0.41-0.34-0.781-0.7-1.091-1.1c-0.21-0.271-0.39-0.551-0.54-0.851s-0.27-0.62-0.359-0.96
		c-0.041-0.17-0.08-0.35-0.11-0.53c-0.11-0.729-0.07-1.55,0.149-2.489c0.08-0.33,0.181-0.67,0.301-1.031
		c0.1-0.31,0.24-0.629,0.369-0.959c0.021-0.041,0.031-0.08,0.051-0.131c0.33-0.76,0.76-1.58,1.279-2.459l0,0l0,0
		c0.101-0.16,0.17-0.311,0.28-0.48c0.56-0.91,1.07-1.8,1.53-2.68c0.689-1.31,1.27-2.57,1.74-3.79c0.32-0.81,0.59-1.61,0.82-2.38
		c0.09-0.31,0.18-0.62,0.26-0.92c0.119-0.45,0.229-0.9,0.32-1.34c0.229-1.1,0.369-2.16,0.449-3.17c0.051-0.68,0.061-1.33,0.051-1.97
		c-0.011-0.32-0.021-0.63-0.041-0.94c-0.039-0.62-0.109-1.21-0.199-1.79c-0.051-0.29-0.101-0.57-0.15-0.85
		c-0.04-0.17-0.08-0.34-0.12-0.51c-0.09-0.37-0.181-0.74-0.28-1.1c-0.229-0.78-0.5-1.51-0.8-2.2c-0.2-0.46-0.409-0.9-0.63-1.32
		s-0.45-0.82-0.689-1.2c-0.24-0.38-0.48-0.74-0.721-1.09c-0.359-0.51-0.73-0.98-1.09-1.41c0.48-0.29,0.92-0.48,1.29-0.48
		c1.79,0,3.61,2.68,5.44,6.46C99,49.32,104.4,60,111.5,65.26c0.12,0.09,0.23,0.17,0.35,0.26c0.43,0.301,0.851,0.59,1.291,0.851
		c0.229,0.14,0.459,0.3,0.689,0.47c0.13,0.1,0.26,0.21,0.391,0.311c0.059,0.05,0.129,0.1,0.189,0.16c0,0,0,0,0,0.01
		c1.63,1.41,3.17,3.57,4.609,6.24C122.4,79.77,124,86.8,124,93.87V116H79.6C81.38,113.79,83.2,111.59,85.04,109.42z"/>
	
		<radialGradient id="SVGID_6_" cx="341.5" cy="-261.7505" r="83.5632" gradientTransform="matrix(1 0 0 -1 -290 -251)" gradientUnits="userSpaceOnUse">
		<stop  offset="0" style="stop-color:#90A4AE"/>
		<stop  offset="0.2263" style="stop-color:#849AA5"/>
		<stop  offset="0.6332" style="stop-color:#65818E"/>
		<stop  offset="0.6858" style="stop-color:#607D8B"/>
		<stop  offset="0.6966" style="stop-color:#5F7C8A"/>
		<stop  offset="0.8475" style="stop-color:#57717E"/>
		<stop  offset="1" style="stop-color:#546E7A"/>
	</radialGradient>
	<path fill="url(#SVGID_6_)" d="M8.79,83.311C13.54,71.85,18.85,59.95,23.28,52.26l0,0c0.17-0.29,0.34-0.58,0.5-0.86l0,0
		c0.02-0.04,0.04-0.07,0.06-0.11c0.19-0.31,0.37-0.62,0.55-0.92c0.04-0.06,0.07-0.11,0.11-0.17c0.17-0.27,0.33-0.53,0.5-0.78
		c0.05-0.08,0.1-0.16,0.15-0.24c0.15-0.23,0.3-0.46,0.45-0.68c0.05-0.07,0.1-0.15,0.15-0.23c0.19-0.28,0.38-0.55,0.57-0.81
		c0.18-0.25,0.37-0.48,0.56-0.71c0.19-0.22,0.4-0.44,0.6-0.64c0.41-0.4,0.85-0.75,1.31-1.05c0.92-0.6,1.91-1,2.94-1.18
		c0.66-0.11,1.34-0.16,2.03-0.22c1.57-0.12,3.2-0.28,4.77-1.25c0.52-0.32,1.04-0.74,1.55-1.27c1.77-1.88,7.92-15.98,13.87-26.26
		c0.6-1.03,1.19-2.02,1.78-2.95c0.29-0.47,0.59-0.92,0.87-1.36c0.58-0.88,1.15-1.69,1.71-2.43c0.84-1.1,1.64-2.03,2.4-2.73
		C61.75,4.5,62.68,3.98,63.49,4c0.43,0.01,0.84,0.14,1.24,0.37c0.789,0.46,1.51,1.32,2.18,2.39c0.34,0.54,0.66,1.13,0.98,1.76
		c-0.17,0.21-0.17,0.21,0,0c0.01,0.01,0.01,0.02,0.02,0.03c-11.53,13.77-9.16,27.69-5.53,38.75c0.41,0.5,0.8,1,1.16,1.53
		c1.819,2.67,3.09,5.71,5.521,7.93c0.85,0.78,1.799,1.41,2.799,1.96c6.061-9.67,12.361-18.36,12.48-18.53l0,0
		c1.53-1.84,2.86-3.15,3.93-3.78c0.36,0.43,0.73,0.9,1.09,1.41c0.24,0.34,0.48,0.7,0.721,1.09c0.24,0.38,0.47,0.78,0.689,1.2
		c0.221,0.42,0.431,0.86,0.631,1.32c0.3,0.69,0.57,1.42,0.8,2.2c0.1,0.36,0.2,0.72,0.28,1.1c0.039,0.17,0.08,0.34,0.119,0.51
		c0.061,0.28,0.11,0.56,0.15,0.85c0.09,0.58,0.16,1.17,0.2,1.79c0.021,0.31,0.03,0.62,0.04,0.94c0.01,0.64,0,1.29-0.051,1.97
		c-0.069,1.01-0.219,2.07-0.449,3.17c-0.09,0.44-0.2,0.89-0.32,1.34c-0.08,0.3-0.16,0.61-0.26,0.92c-0.23,0.77-0.51,1.57-0.82,2.38
		c-0.48,1.22-1.05,2.48-1.74,3.79c-0.459,0.87-0.97,1.76-1.529,2.68c-0.1,0.17-0.18,0.32-0.28,0.479c-0.521,0.88-0.95,1.7-1.28,2.46
		c-0.02,0.04-0.029,0.08-0.05,0.131c-0.14,0.33-0.271,0.649-0.37,0.959c-0.119,0.36-0.22,0.7-0.3,1.03
		c-0.22,0.94-0.261,1.761-0.149,2.49c0.029,0.18,0.06,0.36,0.109,0.53c0.09,0.34,0.21,0.66,0.359,0.959
		c0.15,0.301,0.33,0.58,0.541,0.851c0.31,0.399,0.68,0.76,1.09,1.101c0.33,0.27,0.71,0.52,1.09,0.76c0.12,0.07,0.23,0.149,0.35,0.22
		c0.311,0.19,0.641,0.36,0.971,0.54c0.35,0.18,0.699,0.359,1.06,0.529c0.71,0.341,1.44,0.681,2.16,1.031
		c0.55,0.27,1.09,0.539,1.61,0.829c1.039,0.58,2,1.23,2.77,2.03c0.26,0.27,0.49,0.55,0.7,0.85c0.42,0.601,0.729,1.28,0.899,2.051
		c0.09,0.39,0.141,0.8,0.16,1.24c0.01,0.219,0.01,0.439,0,0.68c-0.02,0.47-0.09,0.959-0.189,1.49c-0.051,0.26-0.12,0.529-0.2,0.81
		c-0.229,0.84-0.56,1.75-1.011,2.739c-1.199,2.65-3.25,5.891-6.399,9.9c-1.181,1.5-2.521,3.12-4.021,4.85
		c-0.799,0.92-1.59,1.871-2.379,2.801c-1.84,2.17-3.66,4.369-5.451,6.58H4v-8.721C4,99.05,5.64,90.91,8.79,83.311z"/>
	
		<linearGradient id="SVGID_7_" gradientUnits="userSpaceOnUse" x1="353.6689" y1="-272.3984" x2="364.419" y2="-306.8987" gradientTransform="matrix(1 0 0 -1 -290 -251)">
		<stop  offset="0" style="stop-color:#607D8B"/>
		<stop  offset="0.4004" style="stop-color:#57727F"/>
		<stop  offset="1" style="stop-color:#455A64"/>
	</linearGradient>
	<path fill="url(#SVGID_7_)" d="M64.87,69.15c-0.43,0.58-1.35,0.18-1.2-0.53c0.93-4.67,2.28-11.36,0.08-17.38
		c-4.22-11.58-8.79-27.23,4.15-42.69c2.26,4.49,4.05,10.67,6.35,10.67c4.641,0,4.811,17.69,10.08,20.97
		C84.189,40.4,69.83,62.37,64.87,69.15z"/>
	
		<linearGradient id="SVGID_8_" gradientUnits="userSpaceOnUse" x1="354" y1="-356.166" x2="354" y2="-334.0755" gradientTransform="matrix(1 0 0 -1 -290 -251)">
		<stop  offset="0" style="stop-color:#37474F"/>
		<stop  offset="1" style="stop-color:#37474F;stop-opacity:0"/>
	</linearGradient>
	<path opacity="0.7" fill="url(#SVGID_8_)" enable-background="new    " d="M119.04,73.55c-1.44-2.68-2.99-4.84-4.61-6.239
		c0,0,0,0,0-0.011c-0.06-0.06-0.13-0.1-0.189-0.159c-0.131-0.111-0.26-0.221-0.391-0.311c-0.229-0.17-0.459-0.33-0.689-0.471
		c-0.439-0.26-0.87-0.549-1.29-0.85c-0.12-0.08-0.24-0.17-0.351-0.26c-7.1-5.26-12.5-15.94-16.52-22.86
		c-1.83-3.78-3.65-6.46-5.439-6.46c-0.371,0-0.811,0.19-1.291,0.48c-1.06,0.63-2.39,1.94-3.93,3.78l0,0
		c-0.119,0.17-6.42,8.85-12.48,18.53c-0.989-0.56-1.939-1.18-2.799-1.96c-2.431-2.22-3.701-5.26-5.521-7.93
		c-0.36-0.53-0.76-1.04-1.16-1.53c-3.64-11.06-6-24.98,5.53-38.75c-0.01-0.01-0.01-0.02-0.02-0.03c-0.17,0.21-0.17,0.21,0,0
		c-0.32-0.63-0.641-1.22-0.98-1.76c-0.67-1.08-1.391-1.93-2.18-2.39C64.34,4.14,63.93,4.01,63.49,4c-0.82-0.02-1.75,0.5-2.76,1.43
		c-0.76,0.7-1.57,1.62-2.4,2.73c-0.56,0.74-1.13,1.55-1.71,2.43c-0.29,0.44-0.58,0.89-0.87,1.36c-0.59,0.93-1.18,1.92-1.78,2.95
		c-5.95,10.28-12.1,24.38-13.87,26.26c-0.51,0.54-1.02,0.95-1.55,1.27c-1.57,0.97-3.21,1.12-4.77,1.25c-0.7,0.06-1.38,0.1-2.03,0.22
		c-1.03,0.18-2.02,0.58-2.94,1.18c-0.46,0.3-0.9,0.65-1.31,1.05c-0.21,0.2-0.41,0.41-0.6,0.64c-0.19,0.22-0.38,0.46-0.56,0.71
		c-0.19,0.26-0.38,0.53-0.57,0.81c-0.05,0.07-0.1,0.15-0.15,0.23c-0.15,0.22-0.3,0.44-0.45,0.68c-0.05,0.08-0.1,0.16-0.15,0.24
		c-0.16,0.25-0.33,0.52-0.5,0.78c-0.04,0.06-0.07,0.11-0.11,0.17c-0.18,0.3-0.37,0.6-0.55,0.92c-0.02,0.04-0.04,0.07-0.06,0.11l0,0
		c-0.17,0.28-0.34,0.57-0.5,0.86l0,0c-4.43,7.69-9.74,19.58-14.49,31.05C5.64,90.91,4,99.05,4,107.279V116h75.6H124V93.87
		C124,86.8,122.4,79.77,119.04,73.55z M87.811,65.08c-0.101,0.17-0.181,0.32-0.281,0.48l0,0C87.63,65.4,87.71,65.25,87.811,65.08z
		 M87.42,106.62c-0.8,0.92-1.59,1.87-2.38,2.8C85.84,108.48,86.62,107.54,87.42,106.62c0.38-0.431,0.74-0.86,1.1-1.28
		C88.17,105.76,87.8,106.18,87.42,106.62z M87.48,76.07c0.33,0.27,0.699,0.52,1.09,0.76C88.18,76.59,87.811,76.34,87.48,76.07z
		 M92.48,44.74c-0.09-0.37-0.181-0.74-0.28-1.1C92.3,44,92.391,44.37,92.48,44.74c0.039,0.17,0.08,0.34,0.119,0.51
		C92.561,45.08,92.52,44.91,92.48,44.74z M99.061,88.311c0.109-0.531,0.17-1.021,0.189-1.49C99.23,87.29,99.16,87.779,99.061,88.311
		z"/>
	<g opacity="0.2">
		<path fill="#424242" d="M63.42,7.12c0.19,0.18,0.51,0.53,0.93,1.2c0.05,0.09,0.169,0.36,0.24,0.52c0.189,0.42,0.45,1.01,0.87,1.53
			c0.5,1.03,0.979,2.16,1.46,3.27c1.891,4.39,3.53,8.21,6.84,8.56c0.82,1.09,1.83,4.9,2.45,7.24c1.42,5.36,2.89,10.9,6.399,13.21
			l0.031,0.03l0.139,0.08l0.031,0.02l0.01,0.01l2.17,1.32l1.65-1.99c1.489-1.8,2.409-2.6,2.889-2.95
			C90,39.65,90.91,40.84,92.29,43.7l0.05,0.1l0.061,0.1c0.55,0.94,1.119,1.95,1.72,3.01c4,7.06,8.97,15.84,15.61,20.75
			c0.129,0.1,0.27,0.199,0.399,0.29c0.56,0.399,1.04,0.71,1.49,0.979c0.12,0.07,0.26,0.17,0.44,0.301
			c0.069,0.049,0.129,0.109,0.199,0.16l0.061,0.049c0.02,0.021,0.039,0.041,0.06,0.051l0.08,0.07c1.271,1.1,2.59,2.92,3.94,5.399
			c3.01,5.58,4.6,12.11,4.6,18.89V113H79.6H7v-5.721c0-7.84,1.53-15.51,4.56-22.809C17.3,70.62,22.12,60.29,25.88,53.77l0.42-0.72
			c0.02-0.04,0.04-0.07,0.07-0.11l0.14-0.24c0.15-0.25,0.3-0.5,0.45-0.74l0.07-0.11l0.04-0.06c0.16-0.25,0.31-0.5,0.47-0.74
			L27.55,51l0.11-0.17c0.14-0.22,0.28-0.43,0.42-0.63l0.07-0.1l0.08-0.11c0.18-0.26,0.35-0.5,0.52-0.74
			c0.13-0.18,0.27-0.35,0.41-0.51c0.14-0.16,0.28-0.31,0.42-0.45c0.28-0.27,0.57-0.51,0.88-0.71c0.57-0.38,1.18-0.62,1.8-0.73
			c0.48-0.08,1.04-0.13,1.63-0.17l0.13-0.01c1.64-0.13,3.88-0.31,6.11-1.69c0.77-0.48,1.49-1.07,2.15-1.77
			c1.14-1.21,2.62-4.14,5.84-10.64c2.45-4.94,5.5-11.09,8.44-16.17c0.6-1.03,1.18-1.99,1.72-2.86c0.28-0.45,0.56-0.88,0.84-1.3
			c0.56-0.84,1.1-1.61,1.6-2.27c0.76-1,1.44-1.78,2.04-2.33C63.05,7.38,63.26,7.22,63.42,7.12 M63.45,4c-0.81,0-1.72,0.52-2.72,1.43
			c-0.76,0.7-1.57,1.62-2.4,2.73c-0.56,0.74-1.13,1.55-1.71,2.43c-0.29,0.44-0.58,0.89-0.87,1.36c-0.59,0.93-1.18,1.92-1.78,2.95
			c-5.95,10.28-12.1,24.38-13.87,26.26c-0.51,0.54-1.02,0.95-1.55,1.27c-1.57,0.97-3.21,1.12-4.77,1.25
			c-0.7,0.06-1.38,0.1-2.03,0.22c-1.03,0.18-2.02,0.58-2.94,1.18c-0.46,0.3-0.9,0.65-1.31,1.05c-0.21,0.2-0.41,0.41-0.6,0.64
			c-0.19,0.22-0.38,0.46-0.56,0.71c-0.19,0.26-0.38,0.53-0.57,0.81c-0.05,0.07-0.1,0.15-0.15,0.23c-0.15,0.22-0.3,0.44-0.45,0.68
			c-0.05,0.08-0.1,0.16-0.15,0.24c-0.16,0.25-0.33,0.52-0.5,0.78c-0.04,0.06-0.07,0.11-0.11,0.17c-0.18,0.3-0.37,0.6-0.55,0.92
			c-0.02,0.04-0.04,0.07-0.06,0.11l0,0c-0.17,0.28-0.34,0.57-0.5,0.86l0,0c-4.43,7.69-9.74,19.58-14.49,31.05
			C5.64,90.91,4,99.05,4,107.279V116h75.6H124V93.87c0-7.07-1.6-14.101-4.96-20.32c-1.44-2.68-2.99-4.84-4.61-6.239c0,0,0,0,0-0.011
			c-0.06-0.06-0.13-0.1-0.189-0.159c-0.131-0.111-0.26-0.221-0.391-0.311c-0.229-0.17-0.459-0.33-0.689-0.471
			c-0.439-0.26-0.87-0.549-1.29-0.85c-0.12-0.08-0.24-0.17-0.351-0.26c-7.1-5.26-12.5-15.94-16.52-22.86
			c-1.83-3.78-3.65-6.46-5.439-6.46c-0.371,0-0.811,0.19-1.291,0.48c-1.06,0.63-2.39,1.94-3.93,3.78l0,0
			C79.07,36.9,78.9,19.22,74.26,19.22c-2.3,0-4.09-6.19-6.35-10.67c-0.01-0.01-0.01-0.02-0.02-0.03
			C67.88,8.53,67.87,8.54,67.85,8.54c-0.189,0-0.629-1.28-0.939-1.78c-0.67-1.08-1.391-1.93-2.18-2.39
			C64.34,4.14,63.93,4.01,63.49,4C63.48,4,63.47,4,63.45,4L63.45,4z"/>
	</g>
	<path opacity="0.2" fill="#EEEEEE" enable-background="new    " d="M37.32,53.83c0.07-0.46-0.57-0.66-0.77-0.24
		c-2.66,5.64-13.77,22.189-17.77,29.25c-0.39,0.689,0.44,1.42,1.07,0.95c1.93-1.431,5.72-4.78,5.93-5.78
		c0.3-1.43,2.96-5.439,3.81-6.699c0.17-0.24,0.34-0.48,0.52-0.711l3.49-4.39c0.68-0.86,1.17-1.85,1.42-2.92L37.32,53.83z"/>
	<path opacity="0.2" fill="#EEEEEE" enable-background="new    " d="M49.45,42.23c0.16-0.34-0.24-0.67-0.54-0.45l-3.66,2.62
		c-0.26,0.27-0.45,0.6-0.53,0.97l-2.87,11.42c0,0.45,0.63,0.54,0.76,0.11L49.45,42.23z"/>
	<path opacity="0.2" fill="#EEEEEE" enable-background="new    " d="M61.64,72.67c0.15-0.41-0.39-0.699-0.65-0.35
		c-3.42,4.6-16.44,17.5-21.32,23.14c-0.48,0.55,0.14,1.36,0.8,1.05c2-0.939,6.02-3.27,6.39-4.14c0.53-1.24,3.65-4.36,4.65-5.341
		c0.19-0.189,0.39-0.369,0.6-0.539l3.94-3.32c0.77-0.65,1.39-1.46,1.81-2.37L61.64,72.67z"/>
	<path opacity="0.2" fill="#EEEEEE" enable-background="new    " d="M45.2,82.13c0.27-0.21,0.09-0.64-0.25-0.59l-4.1,0.58
		c-0.33,0.11-0.62,0.3-0.84,0.569l-7.2,8.09c-0.19,0.361,0.29,0.711,0.57,0.41L45.2,82.13z"/>
	<path opacity="0.2" fill="#424242" enable-background="new    " d="M109.189,86.061c0.24,0.25,0.65-0.041,0.49-0.351
		c-2.17-4.11-7.06-18.14-9.479-23.69c-0.24-0.54-1.04-0.37-1.04,0.22c-0.01,1.79,0.29,5.55,0.79,6.119
		c0.72,0.82,1.92,4.201,2.29,5.271c0.07,0.21,0.13,0.41,0.189,0.63l1.061,4.04c0.21,0.79,0.58,1.521,1.1,2.15L109.189,86.061z"/>
	<path opacity="0.2" fill="#424242" enable-background="new    " d="M109.32,71.779c-0.07-0.27,0.17-0.27,0.4-0.01l3.909,4.771
		c0.31,0.26,0.58,0.64,0.72,1l3.16,8.399l-2.88-4.43c-0.13-0.199-0.33-0.26-0.31-0.09l0.76,6.359c0.02,0.281-0.38,0.051-1.08-0.27
		L109.32,71.779z"/>
	<path opacity="0.2" fill="#424242" enable-background="new    " d="M86.41,46.15c0.16-0.19,0.46-0.11,0.51,0.13l0.71,4.17
		c0.16,0.26,0.17,0.58,0.021,0.84l-3.471,6.13l0.291-3.63c0.01-0.17-0.181-0.26-0.311-0.15l-4.71,4.12
		c-0.229,0.17-0.53-0.09-1.13-0.52L86.41,46.15z"/>
	<path opacity="0.2" fill="#424242" enable-background="new    " d="M65.54,18.5c-0.069-0.28,0.17-0.28,0.41-0.01l4.03,4.92
		c0.319,0.27,0.6,0.66,0.74,1.03l3.26,8.66l-2.971-4.57c-0.14-0.21-0.34-0.27-0.32-0.09L71.48,35c0.02,0.28-0.391,0.05-1.121-0.28
		L65.54,18.5z"/>
	<g>
		
			<linearGradient id="SVGID_9_" gradientUnits="userSpaceOnUse" x1="354" y1="-350.0005" x2="354" y2="-374.5209" gradientTransform="matrix(1 0 0 -1 -290 -251)">
			<stop  offset="0" style="stop-color:#4CAF50"/>
			<stop  offset="0.2673" style="stop-color:#48A84C"/>
			<stop  offset="0.6672" style="stop-color:#3B933F"/>
			<stop  offset="1" style="stop-color:#2E7D32"/>
		</linearGradient>
		<path fill="url(#SVGID_9_)" d="M124,92.57c0-1.9-2-3.16-3.7-2.32c-4.06,2-7.409,5.21-9.59,9.17c-0.59,0.689-1.069,1.52-1.42,2.51
			c-0.021,0.07-0.05,0.141-0.069,0.211c-0.171,0.51-0.701,0.779-1.23,0.649c-0.32-0.08-0.641-0.12-0.98-0.12
			c-1.34,0-2.57,0.63-3.57,1.7c-0.709,0.76-1.91,0.79-2.729,0.149c-2.149-1.66-4.81-2.64-7.69-2.64c-2.199,0-4.27,0.58-6.08,1.58
			c-0.869,0.479-1.949,0.181-2.539-0.62c-3.561-4.84-9.18-7.98-15.521-7.98c-4.8,0-9.18,1.801-12.58,4.771
			c-0.38,0.34-0.94,0.34-1.33,0.011c-0.9-0.781-1.95-1.23-3.08-1.23c-1.1,0-2.13,0.43-3.01,1.17c-0.34,0.29-0.82,0.3-1.2,0.061
			c-2.19-1.41-4.77-2.23-7.54-2.23c-3.9,0-7.42,1.619-9.99,4.23c-0.39,0.399-1.02,0.369-1.43-0.021c-0.95-0.92-2.1-1.47-3.34-1.47
			c-1.36,0-2.61,0.649-3.61,1.74c-0.39,0.43-1.06,0.469-1.45,0.049c-3.57-3.84-8.59-6.239-14.15-6.22C4.96,95.76,4,96.77,4,97.98
			C4,104.5,4,124,4,124h109.029H124V92.57z"/>
	</g>
	<g opacity="0.2">
		<path fill="#424242" d="M121,93.26V121h-7.971H7V98.77c4.23,0.201,8.16,2.041,11.13,5.24c0.74,0.801,1.79,1.26,2.88,1.26
			c1.12,0,2.21-0.479,2.97-1.31c0.32-0.351,0.83-0.771,1.4-0.771c0.4,0,0.83,0.211,1.25,0.621c0.76,0.739,1.77,1.149,2.82,1.149
			c1.07,0,2.08-0.42,2.83-1.18c2.12-2.15,4.91-3.341,7.85-3.341c2.09,0,4.13,0.61,5.91,1.75c0.66,0.42,1.42,0.65,2.19,0.65
			c0.94,0,1.84-0.33,2.56-0.93c0.37-0.311,0.74-0.471,1.08-0.471c0.36,0,0.74,0.17,1.12,0.5c0.73,0.631,1.66,0.98,2.62,0.98
			c0.97,0,1.91-0.35,2.65-1c2.97-2.6,6.74-4.029,10.6-4.029c5.17,0,9.951,2.459,13.101,6.75c0.96,1.299,2.479,2.08,4.069,2.08
			c0.82,0,1.641-0.211,2.351-0.611c1.44-0.799,2.99-1.199,4.62-1.199c2.13,0,4.15,0.699,5.859,2.01c0.9,0.689,2.021,1.07,3.15,1.07
			c1.37,0,2.69-0.57,3.61-1.551c0.319-0.34,0.819-0.75,1.38-0.75c0.09,0,0.18,0.011,0.27,0.031c0.32,0.079,0.641,0.109,0.961,0.109
			c1.729,0,3.26-1.1,3.81-2.73l0.06-0.18c0.211-0.6,0.5-1.12,0.871-1.55l0.199-0.24l0.15-0.271C115.12,97.62,117.76,95.01,121,93.26
			 M121.42,89.99c-0.37,0-0.76,0.08-1.12,0.27c-4.06,2-7.409,5.211-9.59,9.17c-0.59,0.69-1.069,1.521-1.42,2.51
			c-0.021,0.07-0.05,0.141-0.069,0.211c-0.141,0.43-0.531,0.689-0.971,0.689c-0.09,0-0.17-0.01-0.26-0.029
			c-0.32-0.08-0.641-0.121-0.98-0.121c-1.34,0-2.57,0.631-3.57,1.701c-0.379,0.399-0.89,0.6-1.42,0.6c-0.459,0-0.93-0.15-1.31-0.45
			c-2.149-1.66-4.81-2.64-7.69-2.64c-2.199,0-4.27,0.58-6.08,1.58c-0.279,0.16-0.59,0.229-0.899,0.229
			c-0.63,0-1.25-0.31-1.649-0.851C80.83,98.02,75.21,94.88,68.87,94.88c-4.8,0-9.18,1.8-12.58,4.771c-0.19,0.17-0.43,0.26-0.67,0.26
			c-0.23,0-0.47-0.08-0.66-0.25c-0.9-0.78-1.95-1.23-3.08-1.23c-1.1,0-2.13,0.43-3.01,1.17c-0.18,0.15-0.4,0.23-0.63,0.23
			c-0.2,0-0.39-0.061-0.57-0.17c-2.19-1.41-4.77-2.23-7.54-2.23c-3.9,0-7.42,1.62-9.99,4.23c-0.19,0.189-0.44,0.29-0.69,0.29
			c-0.26,0-0.53-0.101-0.74-0.3c-0.95-0.92-2.1-1.471-3.34-1.471c-1.36,0-2.61,0.65-3.61,1.74c-0.21,0.221-0.49,0.34-0.77,0.34
			c-0.25,0-0.5-0.1-0.68-0.3c-3.55-3.83-8.54-6.22-14.08-6.22c-0.03,0-0.05,0-0.08,0C4.96,95.76,4,96.77,4,97.98
			C4,104.5,4,124,4,124h109.029H124V92.57C124,91.08,122.77,89.99,121.42,89.99L121.42,89.99z"/>
	</g>
	<path opacity="0.2" fill="#424242" enable-background="new    " d="M50.2,106.91c3.02,0.93,4.54,3.57,4.13,6.64
		c-0.28,2.14,3.07,2.2,3.35,0.08c0.19-1.409,0.04-2.771-0.37-4.01c4.74-0.011,8.82,2.53,10.879,6.87
		c0.931,1.949,3.871,0.359,2.951-1.59c-2.621-5.521-8.291-8.93-14.391-8.621c-0.44,0.021-0.79,0.191-1.06,0.431
		c-1.15-1.38-2.72-2.45-4.57-3.021C49.07,103.05,48.14,106.27,50.2,106.91z"/>
	<path opacity="0.2" fill="#424242" enable-background="new    " d="M106.05,111.43c2.101,0.711,3.11,2.58,2.771,4.721
		c-0.24,1.49,2.1,1.59,2.34,0.119c0.16-0.979,0.08-1.93-0.18-2.81c3.31,0.08,6.119,1.931,7.479,5c0.61,1.38,2.7,0.319,2.09-1.05
		c-1.729-3.91-5.63-6.4-9.899-6.29c-0.311,0.01-0.561,0.12-0.75,0.28c-0.78-0.99-1.86-1.76-3.141-2.19
		C105.33,108.721,104.62,110.95,106.05,111.43z"/>
	<path opacity="0.2" fill="#424242" enable-background="new    " d="M24.03,109.779c-4.55,0.101-8.07,2.941-9.2,7.371
		c-0.47,1.84-3.33,1.16-2.87-0.68c1.45-5.681,6.11-9.5,11.99-9.631C25.85,106.8,25.93,109.74,24.03,109.779z"/>
</g>
</svg>
