<?xml version="1.0" encoding="UTF-8" standalone="no"?>
<!DOCTYPE svg PUBLIC "-//W3C//DTD SVG 1.1//EN" "http://www.w3.org/Graphics/SVG/1.1/DTD/svg11.dtd">
<svg version="1.1" xmlns="http://www.w3.org/2000/svg" xmlns:xlink="http://www.w3.org/1999/xlink" preserveAspectRatio="xMidYMid meet" viewBox="0 0 640 640" width="300" height="300"><defs><path d="M426.57 146.04C449.5 145.99 468.15 164.5 468.26 187.43C468.66 266.07 469.3 390.7 469.61 451.88C470 527.52 418.85 593.72 345.56 612.43C332.21 615.84 319.3 617.5 306.83 617.42C288.98 617.31 270.49 614.08 251.37 607.73C187.54 586.54 144.45 526.84 144.45 459.58C144.45 397 144.45 264.98 144.45 188.17C144.45 165.24 163.01 146.64 185.94 146.59C242.36 146.46 370.14 146.17 426.57 146.04Z" id="dLi0Bh1qi"></path><path d="M458.19 168.42C475.34 144.26 515.8 169.59 579.56 244.41C561.45 197.81 547.5 170.84 537.71 163.47C527.93 156.11 487.16 141.28 415.41 118.97C426.03 114.03 442.08 108.84 463.56 103.41C485.05 97.98 515.1 109.66 553.72 138.45C511.63 86.46 475.79 63.19 446.18 68.64C442.18 69.37 438.24 70.32 434.36 71.47C409.47 78.83 386.91 94.7 366.66 119.08C383.22 83.04 400.29 57.64 417.88 42.89C435.47 28.13 453.57 24.03 472.19 30.57C437.27 21.55 412.34 26.26 397.4 44.69C344.66 109.74 311.95 136.09 299.27 123.73C304.81 103.6 317.26 85.23 336.61 68.64C355.97 52.04 382.24 37.21 415.41 24.16C383.45 29.83 354.94 40.98 329.88 57.59C304.82 74.2 283.21 96.27 265.04 123.81C259.34 116.32 259.34 106.75 265.04 95.08C270.75 83.42 282.15 69.66 299.27 53.82C216.17 90.91 173.3 114.24 170.66 123.81C161.32 157.61 155.86 170.84 154.26 163.47C336.45 195.53 437.76 197.18 458.19 168.42Z" id="aaezPYO4r"></path><path d="" id="aSbNAZK8O"></path><path d="M191.68 474.72L193.28 483.09L196.75 489.4C198.01 491.75 199.8 494.3 202.1 497.05C205.55 501.17 205.45 501.69 210.56 505.88C213.96 508.67 218.32 511.69 223.63 514.94L261.05 530.53C242 521.87 242 521.87 261.05 530.53C280.1 539.18 294.59 539.15 304.54 530.43L372.22 497.05C405.71 481.54 416.29 475.43 403.97 478.71C400.39 479.67 431.75 406.51 422.17 413.38C349.24 465.7 274.05 480.89 196.59 458.94L191.68 474.72Z" id="cOQlAgUlW"></path><path d="M205 462.11C206.41 462.46 207.29 463.87 206.99 465.29C206.52 467.56 205.63 471.82 205.15 474.09C204.86 475.48 203.47 476.35 202.09 476.01C200.67 475.65 198.96 475.22 197.54 474.87C196.13 474.52 195.25 473.11 195.54 471.69C196.02 469.42 196.91 465.16 197.38 462.89C197.67 461.5 199.06 460.63 200.44 460.97C201.86 461.33 203.58 461.76 205 462.11Z" id="b2AxI561JV"></path><path d="M215.49 464.68C217.04 465.02 218.04 466.53 217.75 468.09C217.34 470.32 216.61 474.23 216.2 476.47C215.91 478 214.42 478.98 212.9 478.65C211.53 478.34 210.17 478.04 208.79 477.74C207.25 477.39 206.25 475.88 206.54 474.32C206.95 472.09 207.68 468.18 208.09 465.94C208.37 464.41 209.87 463.43 211.38 463.76C212.76 464.07 214.12 464.37 215.49 464.68Z" id="c2eNvmGjZ"></path><path d="M226.79 466.55C228.24 466.83 229.21 468.21 228.97 469.66C228.61 471.95 227.93 476.19 227.57 478.48C227.34 479.91 225.97 480.87 224.55 480.59C223.13 480.32 221.46 480 220.04 479.73C218.59 479.45 217.62 478.07 217.86 476.62C218.22 474.33 218.9 470.09 219.26 467.8C219.49 466.37 220.86 465.41 222.28 465.68C223.7 465.96 225.37 466.28 226.79 466.55Z" id="dyTBkX6Fo"></path><path d="M237.75 467.98C239.31 468.17 240.43 469.56 240.28 471.12C240.06 473.4 239.67 477.41 239.45 479.69C239.3 481.23 237.92 482.35 236.38 482.16C234.98 482 233.58 481.83 232.18 481.67C230.63 481.49 229.5 480.09 229.65 478.53C229.87 476.26 230.26 472.24 230.48 469.97C230.63 468.43 232.02 467.31 233.55 467.49C234.95 467.66 236.35 467.82 237.75 467.98Z" id="acNQE4Y2x"></path><path d="M249.27 468.92C250.85 469.04 252.04 470.41 251.95 471.99C251.81 474.27 251.56 478.24 251.42 480.51C251.33 482.08 249.97 483.27 248.4 483.15C247 483.04 245.66 482.94 244.27 482.84C242.69 482.72 241.49 481.35 241.59 479.77C241.73 477.49 241.97 473.52 242.11 471.24C242.21 469.68 243.57 468.49 245.14 468.61C246.53 468.71 247.87 468.82 249.27 468.92Z" id="a1krN5FIqV"></path><path d="M260.37 469.61C262 469.68 263.27 471.04 263.22 472.67C263.14 474.93 263.02 478.78 262.95 481.05C262.9 482.66 261.54 483.93 259.92 483.86C258.54 483.81 257.33 483.76 255.95 483.7C254.32 483.64 253.05 482.27 253.1 480.64C253.18 478.38 253.3 474.53 253.37 472.27C253.42 470.65 254.78 469.38 256.4 469.45C257.78 469.51 258.99 469.56 260.37 469.61Z" id="b4W3A7gfw"></path><path d="M271.98 469.59C273.41 469.58 274.58 470.74 274.59 472.17C274.6 474.51 274.62 478.92 274.63 481.25C274.64 482.68 273.48 483.85 272.05 483.85C270.6 483.85 268.84 483.86 267.39 483.86C265.95 483.86 264.79 482.71 264.78 481.27C264.77 478.94 264.74 474.53 264.73 472.2C264.73 470.77 265.88 469.6 267.31 469.6C268.76 469.59 270.53 469.59 271.98 469.59Z" id="f8HLqhe87i"></path><path d="M283.55 469.23C284.98 469.14 286.2 470.23 286.28 471.66C286.4 473.99 286.64 478.39 286.77 480.72C286.84 482.16 285.75 483.38 284.32 483.47C282.87 483.56 281.11 483.66 279.66 483.75C278.23 483.83 277.01 482.74 276.93 481.31C276.8 478.98 276.57 474.58 276.44 472.25C276.36 470.82 277.46 469.59 278.89 469.51C280.34 469.42 282.1 469.31 283.55 469.23Z" id="b1dI0YCIGY"></path><path d="M294.35 468.16C295.88 468.02 297.22 469.15 297.34 470.68C297.52 472.97 297.84 477.07 298.02 479.36C298.15 480.89 297.01 482.24 295.48 482.37C294.07 482.5 292.6 482.63 291.19 482.76C289.67 482.89 288.33 481.76 288.21 480.24C288.03 477.95 287.7 473.85 287.52 471.56C287.4 470.02 288.53 468.68 290.07 468.54C291.48 468.42 292.94 468.28 294.35 468.16Z" id="d5Lh0PInYw"></path><path d="M305.34 466.44C306.69 466.23 307.95 467.18 308.14 468.54C308.45 470.86 309.06 475.38 309.37 477.7C309.56 479.08 308.61 480.35 307.24 480.56C305.78 480.79 303.88 481.08 302.42 481.31C301.07 481.52 299.8 480.57 299.62 479.22C299.31 476.89 298.7 472.37 298.39 470.05C298.2 468.67 299.15 467.4 300.52 467.19C301.98 466.96 303.88 466.67 305.34 466.44Z" id="a8XpA1h6V"></path><path d="M315.84 464.25C317.33 463.94 318.77 464.92 319.03 466.41C319.43 468.67 320.15 472.73 320.55 474.99C320.82 476.5 319.83 477.95 318.33 478.26C316.93 478.55 315.46 478.85 314.07 479.14C312.58 479.44 311.14 478.46 310.88 476.97C310.48 474.71 309.76 470.66 309.36 468.4C309.09 466.89 310.08 465.43 311.58 465.12C312.98 464.84 314.45 464.53 315.84 464.25Z" id="cFGEGTq80"></path><path d="M326.51 461.36C327.89 461.01 329.29 461.88 329.58 463.27C330.07 465.54 330.99 469.81 331.48 472.08C331.78 473.5 330.91 474.91 329.5 475.26C328.08 475.61 326.37 476.04 324.95 476.39C323.57 476.74 322.18 475.87 321.88 474.48C321.39 472.21 320.48 467.94 319.99 465.67C319.68 464.25 320.56 462.84 321.97 462.49C323.38 462.14 325.1 461.71 326.51 461.36Z" id="dFEvCRSP9"></path><path d="M337.23 458.2C338.56 457.8 339.97 458.59 340.32 459.94C340.9 462.2 342.01 466.48 342.59 468.73C342.95 470.12 342.15 471.54 340.78 471.95C339.37 472.37 337.6 472.91 336.19 473.33C334.86 473.73 333.45 472.94 333.1 471.59C332.52 469.34 331.41 465.06 330.83 462.8C330.47 461.42 331.27 460 332.64 459.59C334.05 459.16 335.82 458.63 337.23 458.2Z" id="fn1BjT7jp"></path><path d="M347.59 454.95C349.03 454.45 350.6 455.26 351.03 456.72C351.68 458.9 352.83 462.76 353.47 464.95C353.92 466.45 353.11 468.03 351.63 468.54C350.28 469.01 348.88 469.49 347.54 469.96C346.1 470.46 344.53 469.66 344.1 468.2C343.45 466.02 342.3 462.15 341.65 459.97C341.21 458.47 342.02 456.89 343.5 456.37C344.85 455.91 346.25 455.42 347.59 454.95Z" id="b7uaWrEcz"></path><path d="M358.13 450.88C359.48 450.37 360.98 451.1 361.42 452.47C362.12 454.66 363.42 458.72 364.13 460.91C364.58 462.32 363.84 463.84 362.45 464.36C361.09 464.87 359.48 465.48 358.11 465.99C356.76 466.49 355.26 465.77 354.82 464.39C354.12 462.2 352.82 458.15 352.12 455.96C351.66 454.54 352.4 453.02 353.79 452.5C355.15 451.99 356.77 451.39 358.13 450.88Z" id="a4itxfk6G"></path><path d="M367.87 446.55C369.2 445.97 370.75 446.63 371.26 447.99C372.06 450.14 373.52 454.07 374.32 456.22C374.84 457.62 374.17 459.2 372.8 459.79C371.46 460.38 369.9 461.05 368.57 461.63C367.23 462.21 365.69 461.56 365.18 460.19C364.38 458.05 362.92 454.11 362.12 451.97C361.6 450.56 362.27 448.99 363.64 448.39C364.98 447.81 366.54 447.13 367.87 446.55Z" id="b4QUNbOdBu"></path><path d="M378.1 441.61C379.4 441 380.93 441.61 381.46 442.93C382.31 445.06 383.9 449.02 384.75 451.15C385.3 452.52 384.68 454.08 383.35 454.71C382.02 455.33 380.4 456.09 379.07 456.71C377.78 457.32 376.24 456.71 375.71 455.39C374.86 453.26 373.28 449.3 372.42 447.17C371.88 445.8 372.49 444.24 373.82 443.61C375.16 442.99 376.77 442.23 378.1 441.61Z" id="a45HzupG9G"></path><path d="M212.84 489.31L212.84 489.31L198.32 489.34L212.84 489.31Z" id="aI3l8uRvj"></path><path d="M302.42 526.72C279.94 524.64 238.54 549.01 178.24 599.82C127.01 621.38 104.86 610.7 111.79 567.77C118.71 524.84 151.99 497.49 211.63 485.72C294.64 515.13 324.9 528.79 302.42 526.72Z" id="e1oXRNnUVn"></path><path d="M223.64 517.12L220.53 518.26L217.69 519.25L214.84 520.1L211.86 520.81L208.88 521.66L205.39 522.37L202.8 522.94L200.08 523.65L196.84 524.22L193.6 524.79L190.88 525.36L188.03 526.07L185.31 527.2L182.47 528.62L179.62 530.03L176.78 531.45L174.06 532.72L171.22 534.13L167.86 536.53L165.28 538.51L162.7 541.61L160.77 544.01L157.42 548.38L155.49 551.2L152.78 554.87L151.24 557.4L149.96 559.94L148.29 564.02L147.27 566.98" id="aEIoECeio"></path><path d="M273.88 278.66C273.98 297.61 255.06 313.04 231.67 313.1C208.27 313.15 189.2 297.8 189.11 278.85C189.01 259.89 207.92 244.46 231.32 244.41C254.71 244.36 273.79 259.7 273.88 278.66Z" id="aQNtMsDA"></path><path d="M406.59 278.36C406.68 297.31 387.77 312.74 364.37 312.8C340.98 312.85 321.91 297.5 321.81 278.55C321.71 259.59 340.63 244.16 364.03 244.11C387.42 244.06 406.49 259.4 406.59 278.36Z" id="b14yh93OiY"></path><path d="M240.52 270.29C240.53 272.15 236.47 273.67 231.47 273.69C226.46 273.7 222.39 272.19 222.38 270.33C222.37 268.46 226.43 266.94 231.43 266.93C236.44 266.92 240.51 268.42 240.52 270.29Z" id="bn6Q47199"></path><path d="M245.99 284.1C243.21 292.25 235.04 296.47 227.77 293.52C220.5 290.57 216.85 281.56 219.63 273.41C222.42 265.26 230.58 261.04 237.85 263.99C245.12 266.94 248.77 275.95 245.99 284.1Z" id="b4T0ZTMoTo"></path><path d="M378.25 278.78C378.29 287.48 372.03 294.56 364.28 294.58C356.53 294.59 350.19 287.54 350.15 278.84C350.11 270.14 356.36 263.07 364.12 263.05C371.87 263.03 378.21 270.08 378.25 278.78Z" id="dbyHfSmeG"></path><path d="M369.58 278.81C369.58 282.23 367.17 285 364.2 285C361.23 285 358.82 282.23 358.82 278.81C358.82 275.4 361.23 272.62 364.2 272.62C367.17 272.62 369.58 275.4 369.58 278.81Z" id="b5v9NlEU1"></path><path d="M238.19 278.81C238.19 282.23 235.78 285 232.81 285C229.84 285 227.43 282.23 227.43 278.81C227.43 275.4 229.84 272.62 232.81 272.62C235.78 272.62 238.19 275.4 238.19 278.81Z" id="a1NpBpUJ92"></path></defs><g><g><g><use xlink:href="#dLi0Bh1qi" opacity="1" fill="#e3e965" fill-opacity="1"></use></g><g><use xlink:href="#aaezPYO4r" opacity="1" fill="#00423b" fill-opacity="1"></use><g><use xlink:href="#aaezPYO4r" opacity="1" fill-opacity="0" stroke="#000000" stroke-width="1" stroke-opacity="1"></use></g></g><g><g><use xlink:href="#aSbNAZK8O" opacity="1" fill-opacity="0" stroke="#000000" stroke-width="1" stroke-opacity="1"></use></g></g><g><use xlink:href="#cOQlAgUlW" opacity="1" fill="#ff0000" fill-opacity="1"></use><g><use xlink:href="#cOQlAgUlW" opacity="1" fill-opacity="0" stroke="#000000" stroke-width="1" stroke-opacity="1"></use></g></g><g><use xlink:href="#b2AxI561JV" opacity="1" fill="#fffff0" fill-opacity="1"></use></g><g><use xlink:href="#c2eNvmGjZ" opacity="1" fill="#ffffff" fill-opacity="1"></use></g><g><use xlink:href="#dyTBkX6Fo" opacity="1" fill="#fffffc" fill-opacity="1"></use></g><g><use xlink:href="#acNQE4Y2x" opacity="1" fill="#efefef" fill-opacity="1"></use></g><g><use xlink:href="#a1krN5FIqV" opacity="1" fill="#fbfbfb" fill-opacity="1"></use></g><g><use xlink:href="#b4W3A7gfw" opacity="1" fill="#fcfcfc" fill-opacity="1"></use></g><g><use xlink:href="#f8HLqhe87i" opacity="1" fill="#fbfbfb" fill-opacity="1"></use></g><g><use xlink:href="#b1dI0YCIGY" opacity="1" fill="#fbfbfb" fill-opacity="1"></use></g><g><use xlink:href="#d5Lh0PInYw" opacity="1" fill="#f8f8f2" fill-opacity="1"></use></g><g><use xlink:href="#a8XpA1h6V" opacity="1" fill="#f8f8f2" fill-opacity="1"></use></g><g><use xlink:href="#cFGEGTq80" opacity="1" fill="#f8f8f2" fill-opacity="1"></use></g><g><use xlink:href="#dFEvCRSP9" opacity="1" fill="#f8f8f2" fill-opacity="1"></use></g><g><use xlink:href="#fn1BjT7jp" opacity="1" fill="#f8f8f2" fill-opacity="1"></use></g><g><use xlink:href="#b7uaWrEcz" opacity="1" fill="#f8f8f2" fill-opacity="1"></use></g><g><use xlink:href="#a4itxfk6G" opacity="1" fill="#f8f8f2" fill-opacity="1"></use></g><g><use xlink:href="#b4QUNbOdBu" opacity="1" fill="#f8f8f2" fill-opacity="1"></use></g><g><use xlink:href="#a45HzupG9G" opacity="1" fill="#f8f8f2" fill-opacity="1"></use></g><g><use xlink:href="#aI3l8uRvj" opacity="1" fill="#f8f8f2" fill-opacity="1"></use></g><g><use xlink:href="#e1oXRNnUVn" opacity="1" fill="#e62e2e" fill-opacity="1"></use><g><use xlink:href="#e1oXRNnUVn" opacity="1" fill-opacity="0" stroke="#000000" stroke-width="1" stroke-opacity="1"></use></g></g><g><g><use xlink:href="#aEIoECeio" opacity="1" fill-opacity="0" stroke="#000000" stroke-width="1" stroke-opacity="1"></use></g></g><g><use xlink:href="#aQNtMsDA" opacity="1" fill="#f8f2f7" fill-opacity="1"></use></g><g><use xlink:href="#b14yh93OiY" opacity="1" fill="#f8f2f7" fill-opacity="1"></use></g><g><use xlink:href="#bn6Q47199" opacity="1" fill="#f8f2f7" fill-opacity="1"></use></g><g><use xlink:href="#b4T0ZTMoTo" opacity="1" fill="#00dafb" fill-opacity="1"></use></g><g><use xlink:href="#dbyHfSmeG" opacity="1" fill="#00ffcf" fill-opacity="1"></use></g><g><use xlink:href="#b5v9NlEU1" opacity="1" fill="#000000" fill-opacity="1"></use></g><g><use xlink:href="#a1NpBpUJ92" opacity="1" fill="#000000" fill-opacity="1"></use></g></g></g></svg>