<?xml version="1.0" encoding="UTF-8" standalone="no"?>
<!DOCTYPE svg PUBLIC "-//W3C//DTD SVG 1.1//EN" "http://www.w3.org/Graphics/SVG/1.1/DTD/svg11.dtd">
<svg version="1.1" xmlns="http://www.w3.org/2000/svg" xmlns:xlink="http://www.w3.org/1999/xlink" preserveAspectRatio="xMidYMid meet" viewBox="0 0 640 640" width="300" height="300"><defs><path d="M400.66 205.71C419.87 205.66 435.5 221.18 435.6 240.39C435.94 305.37 436.79 465.53 437.13 530.51C437.23 549.69 421.73 565.3 402.55 565.34C355.27 565.45 248.2 565.68 200.93 565.79C181.71 565.83 166.08 550.32 165.98 531.1C165.64 466.13 164.8 305.96 164.46 240.99C164.36 221.81 179.85 206.19 199.04 206.15C246.31 206.04 353.38 205.81 400.66 205.71Z" id="acW0kK2eW"></path><linearGradient id="gradientd3xHjK03U" gradientUnits="userSpaceOnUse" x1="299.85" y1="205.93" x2="301.74" y2="565.56"><stop style="stop-color: #f3ff72;stop-opacity: 1" offset="0%"></stop><stop style="stop-color: #010000;stop-opacity: 1" offset="100%"></stop></linearGradient><path d="M435.06 266.67C442.59 256.39 471.11 241.53 520.61 222.09L559.8 222.09L568.82 233.52L586.12 272C593.46 231.43 588.08 203.86 569.99 189.28C561.67 182.58 550.65 174.01 536.95 173.5C521.51 172.94 521.12 167.61 503.99 169.95C472.88 174.21 437.47 187.62 397.78 210.19C418.95 179.57 432.18 160.43 437.47 152.78C447.23 138.66 469.37 147.33 466.94 164.33C465.52 174.23 461.97 198.99 456.3 238.6L489.58 162.78L494.7 124.84L480.62 89.74C458.34 95.89 443.15 103.79 435.06 113.47C413.23 139.54 344.63 188.96 335.23 193.64C335.23 193.64 335.23 193.64 335.23 193.64C335.23 193.64 320.13 145.73 320.13 145.73C316.5 132.66 310.43 110.82 306.33 96.03C303.47 85.73 298.18 76.27 290.91 68.43C277.99 54.52 263.51 43.39 247.47 35.03C239.76 31.01 227.39 32.6 219.37 35.03C205.71 39.16 191.6 50.35 177.04 68.61C202.26 65.23 217.32 63.88 222.22 64.55C227.77 65.31 238.04 75.9 242.95 78.07C263.23 87.02 263.84 107.02 264.47 130.12C264.77 141.34 265.52 169.39 266.73 214.28C241.57 171.02 215.29 142.73 187.89 129.41C160.49 116.09 127.44 152.49 88.73 238.6C131.86 199.92 152.59 183.48 150.94 189.28C145.85 207.11 155.47 214.6 161.75 225.37C165.52 231.83 165.52 244.58 161.75 263.63C326.15 289.93 417.26 290.94 435.06 266.67Z" id="e2wB6cYL44"></path><path d="" id="jnjsOKHOf"></path><path d="M191.37 487.13L192.76 494.2L195.79 499.52C196.89 501.5 198.45 503.65 200.45 505.97C203.46 509.45 203.37 509.89 207.82 513.42C210.79 515.78 214.59 518.33 219.22 521.07L251.83 534.22C235.23 526.92 235.23 526.92 251.83 534.22C268.43 541.53 281.06 541.5 289.73 534.14C421.64 424.14 455.81 391.22 392.25 435.37C328.69 479.52 263.15 492.34 195.66 473.82L191.37 487.13Z" id="a1beEKLGDP"></path><path d="M202.98 476.49C204.2 476.79 204.97 478.01 204.7 479.24C204.29 481.14 203.54 484.63 203.13 486.54C202.87 487.75 201.65 488.51 200.45 488.22C199.21 487.92 197.71 487.56 196.48 487.26C195.25 486.96 194.49 485.74 194.75 484.51C195.16 482.61 195.92 479.12 196.33 477.21C196.59 476 197.8 475.24 199.01 475.53C200.24 475.83 201.74 476.19 202.98 476.49Z" id="b98b7Vjza"></path><path d="M212.2 478.67C213.5 478.95 214.34 480.22 214.09 481.53C213.73 483.42 213.1 486.72 212.74 488.61C212.49 489.9 211.23 490.74 209.94 490.46C208.73 490.2 207.43 489.92 206.22 489.66C204.91 489.38 204.07 488.11 204.32 486.8C204.68 484.91 205.31 481.61 205.67 479.72C205.92 478.43 207.19 477.59 208.47 477.87C209.69 478.13 210.98 478.41 212.2 478.67Z" id="aoP72hkyR"></path><path d="M221.97 480.24C223.23 480.47 224.07 481.67 223.86 482.93C223.55 484.85 222.97 488.32 222.66 490.24C222.45 491.48 221.26 492.32 220.02 492.09C218.78 491.86 217.33 491.59 216.09 491.36C214.83 491.13 213.99 489.93 214.2 488.66C214.51 486.75 215.09 483.28 215.4 481.36C215.61 480.11 216.8 479.28 218.04 479.51C219.28 479.74 220.73 480.01 221.97 480.24Z" id="bJarCcEtc"></path><path d="M231.55 481.45C232.89 481.6 233.86 482.8 233.72 484.14C233.53 486.05 233.2 489.37 233.01 491.27C232.88 492.6 231.68 493.57 230.36 493.42C229.13 493.28 227.87 493.13 226.64 492.99C225.3 492.84 224.34 491.64 224.47 490.3C224.66 488.39 224.99 485.08 225.18 483.17C225.32 481.84 226.51 480.88 227.84 481.03C229.06 481.17 230.33 481.31 231.55 481.45Z" id="h2LDKsqsZ7"></path><path d="M241.62 482.24C242.97 482.34 243.98 483.5 243.89 484.85C243.77 486.76 243.56 490.09 243.44 492C243.36 493.34 242.2 494.35 240.86 494.25C239.63 494.16 238.37 494.07 237.14 493.98C235.8 493.88 234.79 492.72 234.87 491.37C234.99 489.46 235.2 486.13 235.32 484.22C235.41 482.88 236.57 481.87 237.9 481.97C239.13 482.06 240.39 482.15 241.62 482.24Z" id="e3BYwdHM5"></path><path d="M251.32 482.82C252.69 482.88 253.76 484.03 253.72 485.4C253.65 487.31 253.55 490.56 253.49 492.47C253.44 493.84 252.29 494.91 250.93 494.85C249.71 494.8 248.52 494.76 247.3 494.71C245.93 494.65 244.86 493.5 244.9 492.13C244.97 490.22 245.07 486.97 245.13 485.06C245.18 483.7 246.33 482.63 247.69 482.68C248.91 482.73 250.1 482.78 251.32 482.82Z" id="j9VLfOd2Z"></path><path d="M261.35 482.8C262.6 482.8 263.62 483.81 263.63 485.06C263.64 487.01 263.66 490.62 263.67 492.57C263.67 493.82 262.66 494.83 261.42 494.84C260.15 494.84 258.62 494.84 257.35 494.84C256.1 494.85 255.09 493.84 255.08 492.59C255.07 490.63 255.05 487.03 255.04 485.07C255.03 483.83 256.04 482.81 257.29 482.81C258.55 482.81 260.09 482.8 261.35 482.8Z" id="g2HdV61Lr"></path><path d="M271.44 482.5C272.68 482.42 273.75 483.38 273.82 484.62C273.93 486.57 274.13 490.17 274.24 492.13C274.31 493.37 273.35 494.44 272.11 494.51C270.84 494.59 269.31 494.68 268.05 494.75C266.8 494.82 265.73 493.87 265.66 492.62C265.56 490.67 265.35 487.07 265.25 485.12C265.18 483.87 266.13 482.8 267.38 482.73C268.64 482.66 270.17 482.57 271.44 482.5Z" id="cSrQl61Hj"></path><path d="M280.85 481.6C282.18 481.48 283.35 482.47 283.46 483.8C283.62 485.71 283.89 489.05 284.05 490.97C284.16 492.3 283.17 493.47 281.83 493.59C280.6 493.7 279.33 493.81 278.1 493.91C276.77 494.03 275.6 493.04 275.49 491.71C275.33 489.8 275.06 486.46 274.9 484.54C274.79 483.21 275.78 482.03 277.12 481.92C278.35 481.81 279.62 481.7 280.85 481.6Z" id="ipLXf9ZKm"></path><path d="M290.42 480.15C291.61 479.97 292.71 480.79 292.87 481.98C293.15 483.93 293.66 487.63 293.93 489.58C294.1 490.78 293.27 491.88 292.08 492.06C290.81 492.25 289.15 492.5 287.88 492.69C286.7 492.87 285.6 492.05 285.43 490.86C285.16 488.91 284.65 485.21 284.38 483.25C284.21 482.06 285.04 480.96 286.23 480.78C287.5 480.59 289.15 480.34 290.42 480.15Z" id="ePepvZab"></path><path d="M299.65 478.28C300.91 478.03 302.13 478.86 302.36 480.12C302.71 482.03 303.34 485.45 303.69 487.36C303.92 488.63 303.09 489.86 301.82 490.11C300.59 490.35 299.19 490.63 297.96 490.87C296.7 491.12 295.48 490.29 295.25 489.03C294.9 487.13 294.28 483.7 293.93 481.8C293.7 480.52 294.53 479.3 295.8 479.05C297.03 478.8 298.42 478.53 299.65 478.28Z" id="a5yECanwUy"></path><path d="M308.88 475.85C310.09 475.56 311.3 476.32 311.57 477.53C311.99 479.44 312.77 482.94 313.19 484.84C313.46 486.07 312.7 487.29 311.48 487.58C310.25 487.88 308.75 488.24 307.52 488.54C306.31 488.83 305.1 488.08 304.83 486.86C304.41 484.96 303.63 481.46 303.21 479.55C302.94 478.33 303.7 477.11 304.92 476.81C306.15 476.51 307.65 476.15 308.88 475.85Z" id="c114AhFTZH"></path><path d="M318.28 473.18C319.41 472.85 320.6 473.52 320.91 474.66C321.42 476.56 322.38 480.18 322.89 482.08C323.2 483.24 322.53 484.44 321.37 484.78C320.13 485.14 318.5 485.62 317.26 485.98C316.12 486.31 314.93 485.64 314.62 484.49C314.12 482.59 313.15 478.98 312.64 477.07C312.33 475.91 313.01 474.72 314.16 474.38C315.4 474.02 317.04 473.54 318.28 473.18Z" id="a7CdQGYMi"></path><path d="M327.26 470.45C328.51 470.03 329.87 470.73 330.26 472C330.83 473.83 331.8 477 332.36 478.83C332.76 480.12 332.05 481.49 330.77 481.92C329.6 482.31 328.37 482.72 327.2 483.12C325.94 483.54 324.58 482.84 324.19 481.57C323.63 479.74 322.65 476.57 322.09 474.74C321.7 473.45 322.4 472.08 323.68 471.65C324.85 471.26 326.08 470.85 327.26 470.45Z" id="a3mu1ar1LK"></path><path d="M336.43 467.01C337.62 466.58 338.92 467.22 339.32 468.41C339.93 470.25 341.03 473.58 341.64 475.42C342.04 476.64 341.41 477.95 340.2 478.39C339.01 478.82 337.61 479.33 336.42 479.76C335.23 480.19 333.93 479.56 333.53 478.36C332.92 476.53 331.82 473.19 331.21 471.35C330.81 470.14 331.45 468.82 332.65 468.39C333.84 467.95 335.25 467.44 336.43 467.01Z" id="e373inprMz"></path><path d="M344.97 463.34C346.12 462.86 347.43 463.42 347.88 464.58C348.57 466.39 349.85 469.71 350.54 471.52C350.99 472.7 350.43 474.03 349.26 474.52C348.09 475.01 346.66 475.62 345.48 476.11C344.34 476.59 343.02 476.03 342.58 474.87C341.88 473.06 340.61 469.74 339.91 467.93C339.46 466.75 340.03 465.43 341.19 464.94C342.37 464.44 343.8 463.84 344.97 463.34Z" id="dllk78QOn"></path><path d="M353.86 459.18C354.98 458.67 356.31 459.2 356.78 460.34C357.52 462.13 358.88 465.42 359.62 467.22C360.1 468.38 359.57 469.72 358.43 470.24C357.26 470.76 355.83 471.42 354.66 471.94C353.54 472.45 352.22 471.93 351.75 470.79C351.01 469 349.64 465.7 348.9 463.91C348.42 462.75 348.95 461.41 350.1 460.89C351.26 460.36 352.7 459.71 353.86 459.18Z" id="a3eMZByfJ"></path><path d="M209.82 499.44L209.82 499.44L197.16 499.47L209.82 499.44Z" id="gKoQZVryY"></path><path d="M287.88 531.01C268.29 529.26 232.22 549.82 179.66 592.69C135.01 610.89 115.71 601.88 121.74 565.65C127.78 529.43 156.79 506.35 208.76 496.41C281.1 521.23 307.48 532.76 287.88 531.01Z" id="g4YO2jN4ls"></path><path d="M219.22 522.91L216.52 523.87L214.04 524.71L211.55 525.42L208.96 526.02L206.36 526.74L203.32 527.34L201.06 527.82L198.69 528.42L195.87 528.9L193.05 529.38L190.68 529.86L188.19 530.46L185.82 531.42L183.35 532.61L180.87 533.81L178.39 535L176.02 536.07L173.54 537.27L170.61 539.29L168.36 540.96L166.12 543.58L164.43 545.6L161.51 549.29L159.83 551.67L157.47 554.76L156.13 556.9L155.01 559.04L153.56 562.49L152.67 564.98" id="caHdhYnwPq"></path><path d="M274.8 348.78C274.89 364.77 258.4 377.8 238.01 377.84C217.62 377.89 201 364.94 200.92 348.94C200.83 332.95 217.32 319.93 237.71 319.88C258.1 319.84 274.72 332.79 274.8 348.78Z" id="c6c9pZZJSx"></path><path d="M390.46 348.53C390.54 364.52 374.06 377.54 353.67 377.59C333.28 377.63 316.66 364.68 316.57 348.69C316.49 332.69 332.97 319.67 353.36 319.63C373.75 319.58 390.37 332.53 390.46 348.53Z" id="c2r51u0p5g"></path><path d="M245.73 341.72C245.73 343.29 242.2 344.58 237.84 344.59C233.48 344.6 229.93 343.33 229.92 341.75C229.91 340.18 233.45 338.89 237.81 338.88C242.17 338.87 245.72 340.14 245.73 341.72Z" id="lieXlY1kM"></path><path d="M264.06 341.91C261.64 348.78 254.52 352.34 248.19 349.86C241.85 347.37 238.67 339.76 241.1 332.89C243.52 326.01 250.63 322.45 256.97 324.94C263.31 327.43 266.49 335.03 264.06 341.91Z" id="a17sqf4NQN"></path><path d="M350.67 338.86C350.71 346.2 345.25 352.17 338.49 352.19C331.73 352.2 326.22 346.25 326.18 338.91C326.14 331.57 331.59 325.6 338.35 325.58C345.11 325.57 350.63 331.52 350.67 338.86Z" id="bmEb7N06y"></path><path d="M113.42 237.24C113.42 249.14 104.01 258.8 92.43 258.8C80.84 258.8 71.43 249.14 71.43 237.24C71.43 225.34 80.84 215.68 92.43 215.68C104.01 215.68 113.42 225.34 113.42 237.24Z" id="bn1U7pZW"></path><path d="M195.13 68.71C195.13 79.04 186.49 87.43 175.84 87.43C165.19 87.43 156.55 79.04 156.55 68.71C156.55 58.37 165.19 49.98 175.84 49.98C186.49 49.98 195.13 58.37 195.13 68.71Z" id="a3MZHJKUvl"></path><path d="M472.49 251.19C472.49 261.4 464.1 269.68 453.77 269.68C443.43 269.68 435.04 261.4 435.04 251.19C435.04 240.99 443.43 232.7 453.77 232.7C464.1 232.7 472.49 240.99 472.49 251.19Z" id="eHoqss7WW"></path><path d="M607.1 287.17C607.1 299.08 597.95 308.74 586.67 308.74C575.4 308.74 566.24 299.08 566.24 287.17C566.24 275.27 575.4 265.61 586.67 265.61C597.95 265.61 607.1 275.27 607.1 287.17Z" id="e3rYgxBQTT"></path><path d="M225.65 313.02L195.19 317.71L220.97 303.65L291.26 321.22L225.65 313.02Z" id="b17VLsRGP7"></path><path d="M374.59 311.68L405.05 316.37L379.28 302.31L308.98 319.88L374.59 311.68Z" id="b4g8s5BtHG"></path></defs><g><g><g><use xlink:href="#acW0kK2eW" opacity="1" fill="url(#gradientd3xHjK03U)"></use></g><g><use xlink:href="#e2wB6cYL44" opacity="1" fill="#12ab58" fill-opacity="1"></use><g><use xlink:href="#e2wB6cYL44" opacity="1" fill-opacity="0" stroke="#000000" stroke-width="0" stroke-opacity="1"></use></g></g><g><g><use xlink:href="#jnjsOKHOf" opacity="1" fill-opacity="0" stroke="#000000" stroke-width="1" stroke-opacity="1"></use></g></g><g><use xlink:href="#a1beEKLGDP" opacity="1" fill="#ff0000" fill-opacity="1"></use><g><use xlink:href="#a1beEKLGDP" opacity="1" fill-opacity="0" stroke="#000000" stroke-width="1" stroke-opacity="1"></use></g></g><g><use xlink:href="#b98b7Vjza" opacity="1" fill="#fffff0" fill-opacity="1"></use></g><g><use xlink:href="#aoP72hkyR" opacity="1" fill="#ffffff" fill-opacity="1"></use></g><g><use xlink:href="#bJarCcEtc" opacity="1" fill="#fffffc" fill-opacity="1"></use></g><g><use xlink:href="#h2LDKsqsZ7" opacity="1" fill="#efefef" fill-opacity="1"></use></g><g><use xlink:href="#e3BYwdHM5" opacity="1" fill="#fbfbfb" fill-opacity="1"></use></g><g><use xlink:href="#j9VLfOd2Z" opacity="1" fill="#fcfcfc" fill-opacity="1"></use></g><g><use xlink:href="#g2HdV61Lr" opacity="1" fill="#fbfbfb" fill-opacity="1"></use></g><g><use xlink:href="#cSrQl61Hj" opacity="1" fill="#fbfbfb" fill-opacity="1"></use></g><g><use xlink:href="#ipLXf9ZKm" opacity="1" fill="#f8f8f2" fill-opacity="1"></use></g><g><use xlink:href="#ePepvZab" opacity="1" fill="#f8f8f2" fill-opacity="1"></use></g><g><use xlink:href="#a5yECanwUy" opacity="1" fill="#f8f8f2" fill-opacity="1"></use></g><g><use xlink:href="#c114AhFTZH" opacity="1" fill="#f8f8f2" fill-opacity="1"></use></g><g><use xlink:href="#a7CdQGYMi" opacity="1" fill="#f8f8f2" fill-opacity="1"></use></g><g><use xlink:href="#a3mu1ar1LK" opacity="1" fill="#f8f8f2" fill-opacity="1"></use></g><g><use xlink:href="#e373inprMz" opacity="1" fill="#f8f8f2" fill-opacity="1"></use></g><g><use xlink:href="#dllk78QOn" opacity="1" fill="#f8f8f2" fill-opacity="1"></use></g><g><use xlink:href="#a3eMZByfJ" opacity="1" fill="#f8f8f2" fill-opacity="1"></use></g><g><use xlink:href="#gKoQZVryY" opacity="1" fill="#f8f8f2" fill-opacity="1"></use></g><g><use xlink:href="#g4YO2jN4ls" opacity="1" fill="#e62e2e" fill-opacity="1"></use><g><use xlink:href="#g4YO2jN4ls" opacity="1" fill-opacity="0" stroke="#000000" stroke-width="1" stroke-opacity="1"></use></g></g><g><g><use xlink:href="#caHdhYnwPq" opacity="1" fill-opacity="0" stroke="#000000" stroke-width="1" stroke-opacity="1"></use></g></g><g><use xlink:href="#c6c9pZZJSx" opacity="1" fill="#f8f2f7" fill-opacity="1"></use></g><g><use xlink:href="#c2r51u0p5g" opacity="1" fill="#f8f2f7" fill-opacity="1"></use></g><g><use xlink:href="#lieXlY1kM" opacity="1" fill="#f8f2f7" fill-opacity="1"></use></g><g><use xlink:href="#a17sqf4NQN" opacity="1" fill="#0a798f" fill-opacity="1"></use></g><g><use xlink:href="#bmEb7N06y" opacity="1" fill="#076069" fill-opacity="1"></use></g><g><use xlink:href="#bn1U7pZW" opacity="1" fill="#92c20b" fill-opacity="1"></use></g><g><use xlink:href="#a3MZHJKUvl" opacity="1" fill="#a3c002" fill-opacity="1"></use></g><g><use xlink:href="#eHoqss7WW" opacity="1" fill="#97b105" fill-opacity="1"></use></g><g><use xlink:href="#e3rYgxBQTT" opacity="1" fill="#9cc000" fill-opacity="1"></use></g><g><use xlink:href="#b17VLsRGP7" opacity="1" fill="#000000" fill-opacity="1"></use><g><use xlink:href="#b17VLsRGP7" opacity="1" fill-opacity="0" stroke="#000000" stroke-width="1" stroke-opacity="1"></use></g></g><g><use xlink:href="#b4g8s5BtHG" opacity="1" fill="#000000" fill-opacity="1"></use><g><use xlink:href="#b4g8s5BtHG" opacity="1" fill-opacity="0" stroke="#000000" stroke-width="1" stroke-opacity="1"></use></g></g></g></g></svg>