<?xml version="1.0" encoding="UTF-8" standalone="no"?>
<!DOCTYPE svg PUBLIC "-//W3C//DTD SVG 1.1//EN" "http://www.w3.org/Graphics/SVG/1.1/DTD/svg11.dtd">
<svg version="1.1" xmlns="http://www.w3.org/2000/svg" xmlns:xlink="http://www.w3.org/1999/xlink" preserveAspectRatio="xMidYMid meet" viewBox="0 0 640 640" width="300" height="300"><defs><path d="M423.37 180.85C445.99 180.8 464.39 199.06 464.51 221.69C464.91 296.53 465.87 480.15 466.26 555C466.38 577.58 448.14 595.97 425.55 596.02C369.89 596.14 243.83 596.42 188.17 596.54C165.54 596.59 147.14 578.32 147.02 555.7C146.63 480.85 145.67 297.24 145.27 222.39C145.15 199.8 163.4 181.42 185.99 181.37C241.65 181.25 367.71 180.97 423.37 180.85Z" id="a6py206eVa"></path><linearGradient id="gradiente1Mwe6rZNc" gradientUnits="userSpaceOnUse" x1="304.68" y1="181.11" x2="306.86" y2="596.28"><stop style="stop-color: #f3ff72;stop-opacity: 1" offset="0%"></stop><stop style="stop-color: #010000;stop-opacity: 1" offset="100%"></stop></linearGradient><path d="M457.22 195.92C487.44 154.72 618.89 1.7 578.11 31.1C550.93 50.69 496.56 89.89 415.02 148.69L504.38 19.43L366.92 148.8C439.17 39.29 449.28 15.6 397.25 77.74C345.22 139.88 312.95 165.05 300.44 153.24L335.91 88.63L266.67 153.32C275.7 85.9 275.61 68.33 266.4 100.62C257.19 132.9 220.85 163.1 157.39 191.2C337.12 221.82 437.07 223.4 457.22 195.92Z" id="a2v2YTIBrA"></path><path d="" id="mrlnpBdIJ"></path><path d="M191.65 494.14L193.22 502.14L196.65 508.15C197.9 510.4 199.66 512.84 201.93 515.46C205.33 519.4 205.23 519.89 210.27 523.9C213.63 526.57 217.93 529.45 223.17 532.55L260.08 547.44C241.29 539.17 241.29 539.17 260.08 547.44C278.88 555.71 293.18 555.68 302.99 547.35C452.3 422.83 490.99 385.56 419.04 435.54C347.08 485.52 272.9 500.03 196.5 479.07L191.65 494.14Z" id="fnBwUcJbG"></path><path d="M204.78 482.09C206.17 482.43 207.04 483.81 206.74 485.2C206.27 487.36 205.42 491.31 204.96 493.46C204.66 494.84 203.29 495.7 201.92 495.37C200.52 495.03 198.83 494.62 197.43 494.28C196.04 493.94 195.17 492.56 195.48 491.17C195.94 489.01 196.79 485.06 197.26 482.91C197.55 481.53 198.93 480.67 200.29 481C201.69 481.34 203.39 481.75 204.78 482.09Z" id="a6MfCVdMG"></path><path d="M215.22 484.56C216.7 484.88 217.65 486.32 217.37 487.8C216.96 489.93 216.24 493.67 215.83 495.81C215.55 497.27 214.12 498.22 212.67 497.91C211.29 497.61 209.83 497.29 208.45 497C206.97 496.68 206.02 495.24 206.3 493.76C206.71 491.62 207.43 487.89 207.84 485.75C208.12 484.29 209.55 483.34 211.01 483.65C212.38 483.95 213.85 484.26 215.22 484.56Z" id="fzK8bhlzz"></path><path d="M226.29 486.33C227.71 486.6 228.66 487.95 228.43 489.38C228.07 491.55 227.42 495.48 227.06 497.65C226.83 499.06 225.48 500.01 224.07 499.75C222.67 499.49 221.03 499.18 219.63 498.92C218.2 498.66 217.25 497.3 217.49 495.87C217.84 493.7 218.49 489.77 218.85 487.6C219.08 486.19 220.43 485.24 221.84 485.51C223.24 485.77 224.88 486.07 226.29 486.33Z" id="cOqVDKnqZ"></path><path d="M237.13 487.71C238.65 487.88 239.74 489.24 239.59 490.75C239.37 492.92 239 496.66 238.78 498.83C238.63 500.33 237.28 501.42 235.78 501.25C234.39 501.09 232.96 500.93 231.57 500.77C230.06 500.6 228.96 499.24 229.11 497.72C229.33 495.56 229.71 491.81 229.92 489.65C230.07 488.15 231.42 487.06 232.93 487.23C234.31 487.39 235.74 487.55 237.13 487.71Z" id="j1SkVuXlzQ"></path><path d="M248.53 488.6C250.05 488.71 251.2 490.03 251.1 491.55C250.96 493.72 250.72 497.48 250.59 499.65C250.49 501.16 249.18 502.3 247.67 502.19C246.28 502.09 244.85 501.99 243.46 501.88C241.94 501.77 240.79 500.46 240.89 498.94C241.03 496.77 241.26 493.01 241.4 490.84C241.5 489.33 242.81 488.18 244.32 488.29C245.71 488.4 247.14 488.5 248.53 488.6Z" id="b1tGDQbWlI"></path><path d="M259.5 489.26C261.06 489.32 262.27 490.62 262.22 492.18C262.15 494.34 262.03 498.02 261.96 500.18C261.91 501.73 260.61 502.94 259.06 502.87C257.68 502.82 256.34 502.77 254.96 502.71C253.41 502.65 252.19 501.35 252.25 499.8C252.32 497.63 252.43 493.96 252.5 491.8C252.55 490.25 253.86 489.04 255.4 489.1C256.78 489.15 258.12 489.21 259.5 489.26Z" id="aWm24MVfl"></path><path d="M270.87 489.23C272.28 489.23 273.43 490.37 273.44 491.79C273.45 494 273.47 498.08 273.48 500.29C273.49 501.7 272.35 502.85 270.94 502.86C269.51 502.86 267.77 502.86 266.33 502.87C264.92 502.87 263.77 501.73 263.76 500.31C263.75 498.1 263.73 494.02 263.72 491.81C263.71 490.4 264.85 489.25 266.26 489.24C267.69 489.24 269.43 489.24 270.87 489.23Z" id="a1g04dRYFN"></path><path d="M282.28 488.89C283.69 488.81 284.9 489.89 284.98 491.3C285.1 493.51 285.33 497.58 285.45 499.79C285.53 501.2 284.45 502.41 283.04 502.49C281.61 502.58 279.87 502.68 278.44 502.76C277.03 502.84 275.82 501.76 275.75 500.35C275.62 498.14 275.39 494.07 275.27 491.86C275.19 490.45 276.27 489.24 277.68 489.16C279.11 489.07 280.85 488.97 282.28 488.89Z" id="jZsJzNttD"></path><path d="M292.94 487.87C294.44 487.74 295.77 488.86 295.89 490.36C296.07 492.53 296.38 496.31 296.55 498.48C296.68 499.99 295.56 501.32 294.05 501.45C292.66 501.57 291.21 501.69 289.82 501.81C288.32 501.94 286.99 500.83 286.87 499.32C286.69 497.15 286.38 493.37 286.2 491.2C286.08 489.69 287.2 488.37 288.71 488.24C290.1 488.11 291.55 487.99 292.94 487.87Z" id="d2ChpjX5BQ"></path><path d="M303.77 486.23C305.11 486.03 306.36 486.96 306.55 488.3C306.85 490.51 307.44 494.7 307.74 496.91C307.93 498.26 307 499.51 305.65 499.72C304.21 499.93 302.33 500.21 300.9 500.43C299.56 500.63 298.31 499.7 298.12 498.36C297.82 496.15 297.23 491.96 296.93 489.75C296.74 488.39 297.68 487.14 299.02 486.94C300.46 486.73 302.34 486.45 303.77 486.23Z" id="a2i4qssw4B"></path><path d="M314.22 484.12C315.64 483.84 317.02 484.77 317.29 486.2C317.68 488.36 318.39 492.23 318.78 494.39C319.05 495.83 318.11 497.22 316.67 497.51C315.28 497.78 313.7 498.1 312.31 498.37C310.88 498.66 309.5 497.72 309.24 496.29C308.84 494.13 308.14 490.26 307.74 488.1C307.48 486.66 308.42 485.27 309.86 484.98C311.25 484.71 312.83 484.39 314.22 484.12Z" id="b1zg8cIwhw"></path><path d="M324.66 481.37C326.03 481.04 327.41 481.9 327.71 483.27C328.19 485.43 329.07 489.39 329.55 491.54C329.85 492.93 328.99 494.31 327.61 494.65C326.21 494.99 324.52 495.4 323.13 495.73C321.76 496.06 320.38 495.21 320.08 493.83C319.6 491.68 318.72 487.71 318.24 485.56C317.94 484.17 318.8 482.79 320.18 482.45C321.57 482.12 323.27 481.71 324.66 481.37Z" id="b2hXx2bA6Z"></path><path d="M335.3 478.34C336.59 477.97 337.94 478.72 338.28 480.02C338.86 482.17 339.95 486.27 340.52 488.42C340.88 489.73 340.11 491.09 338.81 491.47C337.4 491.88 335.55 492.42 334.15 492.83C332.86 493.21 331.51 492.45 331.17 491.15C330.59 489 329.5 484.9 328.92 482.75C328.57 481.44 329.34 480.08 330.64 479.7C332.04 479.29 333.9 478.75 335.3 478.34Z" id="a17s8TYbee"></path><path d="M345.47 475.25C346.89 474.78 348.43 475.57 348.87 477C349.51 479.07 350.61 482.67 351.24 484.74C351.69 486.2 350.9 487.75 349.45 488.23C348.12 488.68 346.73 489.15 345.4 489.59C343.97 490.07 342.43 489.28 341.99 487.84C341.36 485.77 340.26 482.18 339.62 480.11C339.17 478.65 339.97 477.1 341.42 476.61C342.75 476.17 344.14 475.7 345.47 475.25Z" id="dqbkwBE7u"></path><path d="M355.86 471.36C357.2 470.88 358.67 471.59 359.12 472.95C359.81 475.03 361.06 478.8 361.75 480.88C362.21 482.26 361.48 483.75 360.12 484.24C358.77 484.73 357.18 485.31 355.84 485.8C354.5 486.28 353.02 485.57 352.57 484.21C351.88 482.13 350.63 478.36 349.94 476.27C349.49 474.9 350.21 473.41 351.57 472.92C352.92 472.43 354.51 471.85 355.86 471.36Z" id="b2JAg38gr"></path><path d="M365.52 467.21C366.82 466.66 368.3 467.3 368.81 468.61C369.59 470.66 371.04 474.41 371.82 476.46C372.34 477.8 371.7 479.3 370.38 479.86C369.05 480.42 367.43 481.1 366.1 481.66C364.8 482.2 363.32 481.57 362.81 480.26C362.02 478.21 360.58 474.45 359.79 472.4C359.28 471.07 359.92 469.57 361.24 469.01C362.57 468.45 364.19 467.77 365.52 467.21Z" id="d1hwYgcQiP"></path><path d="M375.58 462.5C376.85 461.92 378.35 462.51 378.88 463.8C379.72 465.83 381.26 469.56 382.1 471.59C382.65 472.91 382.05 474.42 380.75 475.01C379.43 475.61 377.81 476.35 376.49 476.94C375.22 477.52 373.72 476.93 373.19 475.64C372.35 473.61 370.81 469.88 369.97 467.85C369.42 466.53 370.02 465.02 371.32 464.43C372.64 463.84 374.26 463.1 375.58 462.5Z" id="a4o5eA1k"></path><path d="M212.53 508.07L212.53 508.07L198.2 508.1L212.53 508.07Z" id="o2k8MPBmRs"></path><path d="M300.9 543.8C278.72 541.82 237.88 565.1 178.39 613.63C127.85 634.23 106 624.03 112.83 583.02C119.66 542.01 152.5 515.89 211.33 504.64C293.22 532.73 323.08 545.79 300.9 543.8Z" id="a1wJ9ke5Y6"></path><path d="M223.18 534.64L220.11 535.72L217.3 536.67L214.49 537.48L211.56 538.16L208.62 538.97L205.17 539.65L202.61 540.2L199.93 540.87L196.74 541.42L193.54 541.96L190.86 542.51L188.05 543.19L185.37 544.27L182.56 545.62L179.75 546.97L176.95 548.32L174.27 549.54L171.46 550.89L168.15 553.18L165.6 555.07L163.06 558.03L161.15 560.32L157.85 564.5L155.94 567.19L153.28 570.69L151.75 573.11L150.49 575.54L148.85 579.44L147.84 582.26" id="a3xXHb6I6D"></path><path d="M272.74 306.86C272.84 324.96 254.18 339.7 231.1 339.75C208.02 339.81 189.2 325.15 189.11 307.04C189.01 288.94 207.67 274.2 230.75 274.15C253.83 274.09 272.65 288.75 272.74 306.86Z" id="b70MmELjxM"></path><path d="M403.66 306.57C403.76 324.68 385.1 339.42 362.02 339.47C338.94 339.52 320.12 324.86 320.03 306.75C319.93 288.65 338.59 273.91 361.67 273.86C384.75 273.81 403.57 288.47 403.66 306.57Z" id="a5EU49Qb"></path><path d="M239.83 298.86C239.84 300.64 235.84 302.1 230.9 302.11C225.96 302.12 221.95 300.68 221.94 298.9C221.93 297.12 225.93 295.67 230.87 295.66C235.8 295.65 239.82 297.08 239.83 298.86Z" id="c2QI1TTt0y"></path><path d="M265.56 312.01C262.82 319.79 254.76 323.82 247.59 321.01C240.41 318.19 236.82 309.58 239.56 301.8C242.31 294.01 250.36 289.98 257.53 292.8C264.71 295.62 268.31 304.22 265.56 312.01Z" id="aDnMZOOQ9"></path><path d="M355.64 306.73C355.68 315.04 349.5 321.81 341.85 321.82C334.2 321.84 327.96 315.11 327.91 306.79C327.87 298.48 334.05 291.72 341.7 291.71C349.35 291.69 355.59 298.42 355.64 306.73Z" id="b40vjtLboR"></path></defs><g><g><g><use xlink:href="#a6py206eVa" opacity="1" fill="url(#gradiente1Mwe6rZNc)"></use></g><g><use xlink:href="#a2v2YTIBrA" opacity="1" fill="#ab9812" fill-opacity="1"></use><g><use xlink:href="#a2v2YTIBrA" opacity="1" fill-opacity="0" stroke="#000000" stroke-width="0" stroke-opacity="1"></use></g></g><g><g><use xlink:href="#mrlnpBdIJ" opacity="1" fill-opacity="0" stroke="#000000" stroke-width="1" stroke-opacity="1"></use></g></g><g><use xlink:href="#fnBwUcJbG" opacity="1" fill="#ff0000" fill-opacity="1"></use><g><use xlink:href="#fnBwUcJbG" opacity="1" fill-opacity="0" stroke="#000000" stroke-width="1" stroke-opacity="1"></use></g></g><g><use xlink:href="#a6MfCVdMG" opacity="1" fill="#fffff0" fill-opacity="1"></use></g><g><use xlink:href="#fzK8bhlzz" opacity="1" fill="#ffffff" fill-opacity="1"></use></g><g><use xlink:href="#cOqVDKnqZ" opacity="1" fill="#fffffc" fill-opacity="1"></use></g><g><use xlink:href="#j1SkVuXlzQ" opacity="1" fill="#efefef" fill-opacity="1"></use></g><g><use xlink:href="#b1tGDQbWlI" opacity="1" fill="#fbfbfb" fill-opacity="1"></use></g><g><use xlink:href="#aWm24MVfl" opacity="1" fill="#fcfcfc" fill-opacity="1"></use></g><g><use xlink:href="#a1g04dRYFN" opacity="1" fill="#fbfbfb" fill-opacity="1"></use></g><g><use xlink:href="#jZsJzNttD" opacity="1" fill="#fbfbfb" fill-opacity="1"></use></g><g><use xlink:href="#d2ChpjX5BQ" opacity="1" fill="#f8f8f2" fill-opacity="1"></use></g><g><use xlink:href="#a2i4qssw4B" opacity="1" fill="#f8f8f2" fill-opacity="1"></use></g><g><use xlink:href="#b1zg8cIwhw" opacity="1" fill="#f8f8f2" fill-opacity="1"></use></g><g><use xlink:href="#b2hXx2bA6Z" opacity="1" fill="#f8f8f2" fill-opacity="1"></use></g><g><use xlink:href="#a17s8TYbee" opacity="1" fill="#f8f8f2" fill-opacity="1"></use></g><g><use xlink:href="#dqbkwBE7u" opacity="1" fill="#f8f8f2" fill-opacity="1"></use></g><g><use xlink:href="#b2JAg38gr" opacity="1" fill="#f8f8f2" fill-opacity="1"></use></g><g><use xlink:href="#d1hwYgcQiP" opacity="1" fill="#f8f8f2" fill-opacity="1"></use></g><g><use xlink:href="#a4o5eA1k" opacity="1" fill="#f8f8f2" fill-opacity="1"></use></g><g><use xlink:href="#o2k8MPBmRs" opacity="1" fill="#f8f8f2" fill-opacity="1"></use></g><g><use xlink:href="#a1wJ9ke5Y6" opacity="1" fill="#e62e2e" fill-opacity="1"></use><g><use xlink:href="#a1wJ9ke5Y6" opacity="1" fill-opacity="0" stroke="#000000" stroke-width="1" stroke-opacity="1"></use></g></g><g><g><use xlink:href="#a3xXHb6I6D" opacity="1" fill-opacity="0" stroke="#000000" stroke-width="1" stroke-opacity="1"></use></g></g><g><use xlink:href="#b70MmELjxM" opacity="1" fill="#f8f2f7" fill-opacity="1"></use></g><g><use xlink:href="#a5EU49Qb" opacity="1" fill="#f8f2f7" fill-opacity="1"></use></g><g><use xlink:href="#c2QI1TTt0y" opacity="1" fill="#f8f2f7" fill-opacity="1"></use></g><g><use xlink:href="#aDnMZOOQ9" opacity="1" fill="#8f410a" fill-opacity="1"></use></g><g><use xlink:href="#b40vjtLboR" opacity="1" fill="#693707" fill-opacity="1"></use></g></g></g></svg>