<?xml version="1.0" encoding="UTF-8" standalone="no"?>
<!DOCTYPE svg PUBLIC "-//W3C//DTD SVG 1.1//EN" "http://www.w3.org/Graphics/SVG/1.1/DTD/svg11.dtd">
<svg version="1.1" xmlns="http://www.w3.org/2000/svg" xmlns:xlink="http://www.w3.org/1999/xlink" preserveAspectRatio="xMidYMid meet" viewBox="0 0 640 640" width="300" height="300"><defs><path d="M280.79 116.7C350.62 159.51 394.26 186.27 411.72 196.97C424.16 204.6 431.75 218.15 431.75 232.75C431.75 293.83 431.75 445.89 431.75 505.05C431.75 525.48 420.71 544.32 402.88 554.3C382.34 565.82 342.25 588.28 319.87 600.81C307.57 607.71 292.61 607.92 280.12 601.38C256.19 588.85 211.86 565.63 189.79 554.07C171.66 544.58 160.01 526.11 159.25 505.66C157.32 453.67 152.72 329.45 150.78 277.13C150.03 257.09 157.76 237.67 172.05 223.61C186.55 209.35 222.8 173.72 280.79 116.7Z" id="bHwF2DBRv"></path><path d="M285.96 138.45C380.55 207.03 430.13 235.34 434.69 223.37C449.91 183.49 416.89 -5.54 390.5 27.25C372.91 49.12 362.37 67.45 358.89 82.25L350.27 15.93C338.98 35.24 331.93 47.31 329.1 52.13C320.98 66.04 299.63 58.14 302.51 42.3C302.51 42.3 302.51 42.3 302.51 42.3C274.35 103.9 262.6 107.13 267.25 52.01L249.35 41.62L239.96 75.06C221.96 25.69 212.85 14.99 212.63 42.97C212.45 66 189.78 137.93 144.62 258.77C140.82 268.95 153.7 277.02 161.2 269.16C177.84 251.73 219.42 208.16 285.96 138.45Z" id="eZyi3T6yl"></path><path d="" id="c3AXP1uLRA"></path><path d="M195.03 474.57L196.36 481.37L199.27 486.48C200.34 488.39 201.83 490.46 203.76 492.69C206.65 496.04 206.56 496.46 210.85 499.86C213.71 502.13 217.36 504.58 221.81 507.22L253.18 519.87C237.21 512.84 237.21 512.84 253.18 519.87C269.14 526.89 281.3 526.86 289.63 519.79C416.51 413.98 449.38 382.31 388.24 424.78C327.1 467.25 264.07 479.58 199.14 461.77L195.03 474.57Z" id="bVL8IlYxT"></path><path d="M208.35 464.15C209.53 464.43 210.26 465.6 210.01 466.79C209.61 468.62 208.89 471.98 208.49 473.81C208.24 474.98 207.07 475.71 205.91 475.43C204.72 475.14 203.28 474.79 202.1 474.5C200.92 474.22 200.18 473.04 200.44 471.86C200.83 470.03 201.56 466.67 201.95 464.84C202.2 463.67 203.37 462.94 204.53 463.22C205.72 463.51 207.16 463.86 208.35 464.15Z" id="c2OlUR7gwL"></path><path d="M217.21 466.24C218.47 466.51 219.28 467.74 219.04 469C218.69 470.81 218.08 473.99 217.74 475.8C217.5 477.05 216.28 477.85 215.04 477.58C213.87 477.33 212.63 477.06 211.46 476.81C210.21 476.54 209.4 475.32 209.64 474.06C209.98 472.24 210.59 469.07 210.94 467.25C211.18 466.01 212.39 465.21 213.63 465.47C214.8 465.72 216.05 465.99 217.21 466.24Z" id="hMImqRzCz"></path><path d="M226.62 467.75C227.83 467.97 228.64 469.13 228.43 470.34C228.13 472.18 227.58 475.52 227.28 477.37C227.08 478.57 225.93 479.37 224.74 479.15C223.54 478.93 222.15 478.67 220.96 478.45C219.75 478.22 218.94 477.07 219.14 475.85C219.44 474.01 219.99 470.67 220.3 468.83C220.49 467.63 221.64 466.82 222.84 467.05C224.03 467.27 225.42 467.53 226.62 467.75Z" id="aaT8wASYp"></path><path d="M235.83 468.92C237.12 469.06 238.05 470.22 237.92 471.51C237.74 473.34 237.42 476.53 237.23 478.37C237.11 479.64 235.96 480.57 234.68 480.43C233.5 480.29 232.29 480.15 231.11 480.02C229.82 479.87 228.89 478.72 229.02 477.43C229.2 475.59 229.52 472.41 229.71 470.57C229.83 469.29 230.98 468.36 232.26 468.51C233.44 468.64 234.65 468.78 235.83 468.92Z" id="eKHNdPPaP"></path><path d="M245.52 469.68C246.81 469.77 247.78 470.89 247.7 472.18C247.58 474.03 247.38 477.22 247.27 479.07C247.18 480.35 246.07 481.32 244.79 481.23C243.6 481.14 242.39 481.05 241.21 480.96C239.92 480.87 238.94 479.75 239.02 478.46C239.14 476.62 239.34 473.42 239.46 471.58C239.54 470.29 240.66 469.32 241.94 469.42C243.12 469.5 244.34 469.59 245.52 469.68Z" id="am79gPygW"></path><path d="M254.84 470.24C256.16 470.29 257.19 471.4 257.15 472.72C257.09 474.55 256.99 477.68 256.93 479.52C256.89 480.83 255.78 481.86 254.47 481.81C253.29 481.76 252.16 481.72 250.98 481.67C249.66 481.62 248.63 480.51 248.67 479.19C248.73 477.35 248.84 474.23 248.89 472.39C248.94 471.08 250.04 470.05 251.36 470.1C252.53 470.15 253.67 470.19 254.84 470.24Z" id="f2faljHJA"></path><path d="M264.5 470.21C265.7 470.21 266.68 471.18 266.68 472.38C266.69 474.26 266.71 477.73 266.72 479.61C266.73 480.81 265.76 481.79 264.56 481.79C263.34 481.79 261.86 481.8 260.65 481.8C259.44 481.8 258.47 480.83 258.46 479.63C258.45 477.75 258.43 474.28 258.42 472.4C258.42 471.2 259.39 470.23 260.59 470.22C261.8 470.22 263.28 470.22 264.5 470.21Z" id="d1NMTPH1rp"></path><path d="M274.2 469.92C275.39 469.85 276.42 470.77 276.49 471.97C276.59 473.84 276.78 477.31 276.89 479.19C276.96 480.38 276.04 481.41 274.84 481.48C273.62 481.55 272.15 481.64 270.93 481.71C269.74 481.78 268.71 480.86 268.64 479.66C268.54 477.79 268.35 474.32 268.24 472.45C268.17 471.25 269.09 470.22 270.29 470.15C271.5 470.08 272.98 469.99 274.2 469.92Z" id="aJMOGqLXc"></path><path d="M283.25 469.05C284.53 468.94 285.66 469.89 285.76 471.17C285.91 473.02 286.17 476.23 286.32 478.07C286.43 479.35 285.48 480.48 284.2 480.59C283.01 480.69 281.79 480.8 280.6 480.9C279.32 481.02 278.2 480.07 278.09 478.79C277.94 476.94 277.68 473.73 277.53 471.89C277.43 470.6 278.38 469.48 279.66 469.37C280.84 469.26 282.07 469.16 283.25 469.05Z" id="d2yjWoGbWY"></path><path d="M292.46 467.66C293.6 467.49 294.66 468.28 294.82 469.42C295.08 471.3 295.57 474.86 295.83 476.74C295.99 477.89 295.2 478.95 294.05 479.12C292.83 479.31 291.24 479.54 290.02 479.73C288.88 479.9 287.82 479.11 287.66 477.97C287.4 476.09 286.9 472.53 286.64 470.65C286.48 469.5 287.28 468.44 288.42 468.27C289.64 468.08 291.24 467.85 292.46 467.66Z" id="gYoBqf3EA"></path><path d="M301.34 465.87C302.55 465.63 303.72 466.43 303.94 467.64C304.28 469.47 304.88 472.76 305.21 474.6C305.44 475.82 304.64 477 303.42 477.24C302.23 477.48 300.89 477.75 299.71 477.98C298.5 478.22 297.33 477.42 297.1 476.21C296.77 474.38 296.17 471.08 295.83 469.25C295.61 468.03 296.41 466.85 297.63 466.6C298.81 466.37 300.15 466.1 301.34 465.87Z" id="e3a0zEqYBK"></path><path d="M310.21 463.53C311.37 463.25 312.54 463.98 312.8 465.15C313.21 466.98 313.95 470.35 314.36 472.18C314.62 473.36 313.89 474.53 312.71 474.82C311.53 475.1 310.09 475.45 308.9 475.74C307.74 476.02 306.57 475.29 306.32 474.12C305.91 472.29 305.16 468.92 304.76 467.09C304.49 465.91 305.23 464.74 306.4 464.45C307.59 464.17 309.03 463.82 310.21 463.53Z" id="aoQxYCZsO"></path><path d="M319.25 460.96C320.34 460.64 321.49 461.28 321.78 462.39C322.27 464.22 323.2 467.69 323.69 469.52C323.99 470.64 323.34 471.79 322.23 472.12C321.04 472.46 319.46 472.92 318.27 473.27C317.17 473.59 316.03 472.95 315.74 471.84C315.25 470.01 314.32 466.54 313.83 464.71C313.53 463.59 314.18 462.44 315.29 462.11C316.48 461.77 318.06 461.31 319.25 460.96Z" id="a2ocJIrmX2"></path><path d="M327.89 458.34C329.1 457.93 330.41 458.6 330.78 459.82C331.32 461.58 332.26 464.63 332.8 466.39C333.18 467.63 332.5 468.95 331.27 469.36C330.14 469.74 328.96 470.14 327.83 470.52C326.62 470.93 325.31 470.26 324.94 469.03C324.4 467.27 323.46 464.22 322.92 462.46C322.54 461.22 323.22 459.9 324.45 459.49C325.58 459.11 326.76 458.72 327.89 458.34Z" id="aBoH9DtVe"></path><path d="M336.72 455.03C337.85 454.62 339.11 455.22 339.49 456.37C340.08 458.14 341.14 461.35 341.72 463.12C342.11 464.29 341.5 465.55 340.34 465.97C339.2 466.39 337.84 466.88 336.7 467.29C335.56 467.71 334.31 467.1 333.92 465.95C333.34 464.18 332.28 460.97 331.69 459.2C331.3 458.03 331.92 456.77 333.08 456.35C334.22 455.93 335.57 455.44 336.72 455.03Z" id="g5MaHroLZ"></path><path d="M344.93 451.5C346.03 451.04 347.29 451.57 347.72 452.69C348.39 454.43 349.62 457.62 350.28 459.36C350.72 460.5 350.18 461.77 349.06 462.25C347.93 462.72 346.55 463.3 345.42 463.78C344.32 464.24 343.05 463.7 342.63 462.59C341.96 460.85 340.73 457.66 340.06 455.91C339.63 454.78 340.17 453.5 341.29 453.03C342.42 452.56 343.8 451.97 344.93 451.5Z" id="c9vcxe3u0"></path><path d="M353.48 447.5C354.56 447.01 355.83 447.51 356.28 448.61C357 450.33 358.31 453.5 359.02 455.23C359.48 456.34 358.97 457.63 357.87 458.13C356.75 458.64 355.37 459.26 354.25 459.77C353.17 460.26 351.9 459.76 351.44 458.66C350.73 456.94 349.42 453.77 348.71 452.04C348.25 450.93 348.75 449.64 349.86 449.14C350.98 448.63 352.36 448.01 353.48 447.5Z" id="f1qRdQSHLD"></path><path d="M214.92 486.22L214.92 486.22L202.75 486.25L214.92 486.22Z" id="bbLKUiV5fk"></path><path d="M248.18 512.46C267.03 510.78 301.73 530.55 352.27 571.79C395.22 589.3 413.79 580.63 407.99 545.78C402.18 510.94 374.28 488.74 324.29 479.19C254.7 503.05 229.33 514.15 248.18 512.46Z" id="e6bNNUxmI"></path><path d="M313.76 509.76L316.36 510.68L318.75 511.49L321.14 512.18L323.63 512.76L326.13 513.45L329.06 514.02L331.23 514.49L333.51 515.06L336.22 515.53L338.94 515.99L341.22 516.45L343.61 517.03L345.88 517.95L348.27 519.09L350.65 520.24L353.04 521.39L355.32 522.42L357.7 523.57L360.52 525.52L362.68 527.12L364.84 529.64L366.46 531.59L369.27 535.13L370.89 537.42L373.15 540.4L374.45 542.46L375.52 544.51L376.92 547.83L377.78 550.23" id="aivEiJZoL"></path><path d="M266.09 315.25C266.17 330.63 250.32 343.16 230.71 343.2C211.09 343.24 195.11 330.79 195.03 315.4C194.94 300.02 210.8 287.49 230.41 287.45C250.02 287.4 266.01 299.86 266.09 315.25Z" id="a6Reem3Sio"></path><path d="M398.93 315.25C399.01 330.63 383.15 343.16 363.54 343.2C343.93 343.24 327.94 330.79 327.86 315.4C327.78 300.02 343.63 287.49 363.25 287.45C382.86 287.4 398.85 299.86 398.93 315.25Z" id="b4ssuDaetW"></path><path d="M238.12 308.45C238.13 309.97 234.73 311.2 230.54 311.21C226.34 311.22 222.93 310 222.92 308.49C222.91 306.97 226.31 305.74 230.51 305.73C234.7 305.72 238.12 306.94 238.12 308.45Z" id="bXA5YXJwh"></path><path d="M253.4 328.3C251.07 334.91 244.22 338.34 238.13 335.94C232.03 333.55 228.97 326.23 231.31 319.62C233.64 313.01 240.48 309.58 246.58 311.97C252.67 314.37 255.73 321.68 253.4 328.3Z" id="b1MXSQBWLb"></path><path d="M376.91 314.47C376.95 321.53 371.7 327.28 365.2 327.29C358.7 327.3 353.39 321.58 353.35 314.52C353.32 307.46 358.56 301.71 365.07 301.7C371.57 301.69 376.87 307.41 376.91 314.47Z" id="bP65TpiA0"></path><path d="M370.54 315.32C370.54 317.77 368.65 319.76 366.31 319.76C363.98 319.76 362.09 317.77 362.09 315.32C362.09 312.87 363.98 310.89 366.31 310.89C368.65 310.89 370.54 312.87 370.54 315.32Z" id="a31bNqg4d"></path><path d="M247.36 326.1C247.23 328.55 245.27 330.43 242.99 330.31C240.72 330.19 238.97 328.1 239.11 325.66C239.24 323.21 241.19 321.33 243.47 321.45C245.75 321.57 247.49 323.66 247.36 326.1Z" id="bECCkww5I"></path><path d="M281.42 600.03L281.42 601.54L281.42 603.13L281.42 604.64L281.42 606.14" id="b1Zrr4IDV0"></path><path d="M281.42 587.36L281.79 588.95L282.08 590.45L282.36 591.86L282.55 593.27L282.64 594.87" id="c8HMBHZqx1"></path><path d="M306.54 590.09C306.54 583.42 303.72 575.09 298.08 565.07C297.71 564.42 298.18 563.6 298.94 563.6C299.28 563.6 298.6 563.6 298.94 563.6C299.94 563.6 300.83 564.26 301.13 565.22C302.23 568.78 304.97 577.7 309.36 591.96C305.18 598.75 302.56 603 301.52 604.7C300.97 605.59 299.99 606.14 298.94 606.14C298.6 606.14 299.28 606.14 298.94 606.14C298.42 606.14 298.22 605.47 298.64 605.18C303.91 601.56 306.54 596.53 306.54 590.09Z" id="amw7AfIZ"></path></defs><g><g><g><use xlink:href="#bHwF2DBRv" opacity="1" fill="#8dea00" fill-opacity="1"></use></g><g><use xlink:href="#eZyi3T6yl" opacity="1" fill="#0661d2" fill-opacity="1"></use><g><use xlink:href="#eZyi3T6yl" opacity="1" fill-opacity="0" stroke="#000000" stroke-width="0" stroke-opacity="1"></use></g></g><g><g><use xlink:href="#c3AXP1uLRA" opacity="1" fill-opacity="0" stroke="#000000" stroke-width="1" stroke-opacity="1"></use></g></g><g><use xlink:href="#bVL8IlYxT" opacity="1" fill="#ff0000" fill-opacity="1"></use><g><use xlink:href="#bVL8IlYxT" opacity="1" fill-opacity="0" stroke="#000000" stroke-width="1" stroke-opacity="1"></use></g></g><g><use xlink:href="#c2OlUR7gwL" opacity="1" fill="#fffff0" fill-opacity="1"></use></g><g><use xlink:href="#hMImqRzCz" opacity="1" fill="#ffffff" fill-opacity="1"></use></g><g><use xlink:href="#aaT8wASYp" opacity="1" fill="#fffffc" fill-opacity="1"></use></g><g><use xlink:href="#eKHNdPPaP" opacity="1" fill="#efefef" fill-opacity="1"></use></g><g><use xlink:href="#am79gPygW" opacity="1" fill="#fbfbfb" fill-opacity="1"></use></g><g><use xlink:href="#f2faljHJA" opacity="1" fill="#fcfcfc" fill-opacity="1"></use></g><g><use xlink:href="#d1NMTPH1rp" opacity="1" fill="#fbfbfb" fill-opacity="1"></use></g><g><use xlink:href="#aJMOGqLXc" opacity="1" fill="#fbfbfb" fill-opacity="1"></use></g><g><use xlink:href="#d2yjWoGbWY" opacity="1" fill="#f8f8f2" fill-opacity="1"></use></g><g><use xlink:href="#gYoBqf3EA" opacity="1" fill="#f8f8f2" fill-opacity="1"></use></g><g><use xlink:href="#e3a0zEqYBK" opacity="1" fill="#f8f8f2" fill-opacity="1"></use></g><g><use xlink:href="#aoQxYCZsO" opacity="1" fill="#f8f8f2" fill-opacity="1"></use></g><g><use xlink:href="#a2ocJIrmX2" opacity="1" fill="#f8f8f2" fill-opacity="1"></use></g><g><use xlink:href="#aBoH9DtVe" opacity="1" fill="#f8f8f2" fill-opacity="1"></use></g><g><use xlink:href="#g5MaHroLZ" opacity="1" fill="#f8f8f2" fill-opacity="1"></use></g><g><use xlink:href="#c9vcxe3u0" opacity="1" fill="#f8f8f2" fill-opacity="1"></use></g><g><use xlink:href="#f1qRdQSHLD" opacity="1" fill="#f8f8f2" fill-opacity="1"></use></g><g><use xlink:href="#bbLKUiV5fk" opacity="1" fill="#f8f8f2" fill-opacity="1"></use></g><g><use xlink:href="#e6bNNUxmI" opacity="1" fill="#e62e2e" fill-opacity="1"></use><g><use xlink:href="#e6bNNUxmI" opacity="1" fill-opacity="0" stroke="#000000" stroke-width="1" stroke-opacity="1"></use></g></g><g><g><use xlink:href="#aivEiJZoL" opacity="1" fill-opacity="0" stroke="#000000" stroke-width="1" stroke-opacity="1"></use></g></g><g><use xlink:href="#a6Reem3Sio" opacity="1" fill="#f8f2f7" fill-opacity="1"></use></g><g><use xlink:href="#b4ssuDaetW" opacity="1" fill="#f8f2f7" fill-opacity="1"></use></g><g><use xlink:href="#bXA5YXJwh" opacity="1" fill="#f8f2f7" fill-opacity="1"></use></g><g><use xlink:href="#b1MXSQBWLb" opacity="1" fill="#8f410a" fill-opacity="1"></use></g><g><use xlink:href="#bP65TpiA0" opacity="1" fill="#693707" fill-opacity="1"></use></g><g><use xlink:href="#a31bNqg4d" opacity="1" fill="#e3e965" fill-opacity="1"></use></g><g><use xlink:href="#bECCkww5I" opacity="1" fill="#e3e965" fill-opacity="1"></use></g><g><use xlink:href="#b1Zrr4IDV0" opacity="1" fill="#000000" fill-opacity="1"></use><g><use xlink:href="#b1Zrr4IDV0" opacity="1" fill-opacity="0" stroke="#000000" stroke-width="0" stroke-opacity="1"></use></g></g><g><g><use xlink:href="#c8HMBHZqx1" opacity="1" fill-opacity="0" stroke="#000000" stroke-width="0" stroke-opacity="1"></use></g></g><g><use xlink:href="#amw7AfIZ" opacity="1" fill="#119009" fill-opacity="1"></use></g></g></g></svg>