<?xml version="1.0" encoding="utf-8"?>
<!-- Generator: Adobe Illustrator 16.0.0, SVG Export Plug-In . SVG Version: 6.00 Build 0)  -->
<!DOCTYPE svg PUBLIC "-//W3C//DTD SVG 1.1//EN" "http://www.w3.org/Graphics/SVG/1.1/DTD/svg11.dtd">
<svg version="1.1" id="Layer_1" xmlns="http://www.w3.org/2000/svg" xmlns:xlink="http://www.w3.org/1999/xlink" x="0px" y="0px"
	 width="128px" height="128px" viewBox="0 0 128 128" enable-background="new 0 0 128 128" xml:space="preserve">
<g>
	<g>
		<path fill="none" d="M91.45,101.77c-1.181,1.5-2.521,3.121-4.021,4.851c-0.8,0.92-1.59,1.87-2.38,2.8
			c0.79-0.93,1.58-1.88,2.38-2.8C88.93,104.891,90.27,103.27,91.45,101.77z"/>
		<path fill="none" d="M99.25,86.15c-0.02-0.44-0.07-0.851-0.16-1.24C99.18,85.3,99.24,85.71,99.25,86.15z"/>
		<path fill="none" d="M98.189,82.859c-0.209-0.299-0.439-0.58-0.699-0.85C97.75,82.279,97.98,82.561,98.189,82.859z"/>
		<path fill="none" d="M99.061,88.311c0.109-0.531,0.17-1.021,0.189-1.49C99.23,87.29,99.16,87.779,99.061,88.311z"/>
		<path fill="none" d="M97.85,91.87c0.45-0.99,0.791-1.899,1.01-2.74C98.63,89.96,98.3,90.87,97.85,91.87z"/>
		<path fill="none" d="M91.45,101.77c3.149-4.01,5.2-7.25,6.399-9.899C96.641,94.52,94.6,97.76,91.45,101.77z"/>
		
			<radialGradient id="SVGID_1_" cx="341" cy="-293.1665" r="64.7221" gradientTransform="matrix(1 0 0 -1 -290 -251)" gradientUnits="userSpaceOnUse">
			<stop  offset="0" style="stop-color:#78909C"/>
			<stop  offset="0.427" style="stop-color:#6C8490"/>
			<stop  offset="1" style="stop-color:#546E7A"/>
		</radialGradient>
		<path fill="url(#SVGID_1_)" d="M85.38,72.63c0.03,0.181,0.06,0.36,0.11,0.53c0.09,0.34,0.21,0.66,0.359,0.96
			c0.15,0.3,0.33,0.58,0.541,0.851c0.31,0.399,0.68,0.76,1.09,1.1c1.51,1.229,3.619,2.109,5.64,3.08c0.55,0.27,1.09,0.539,1.61,0.83
			c1.039,0.58,2,1.229,2.77,2.029c0.26,0.27,0.49,0.551,0.7,0.85c0.42,0.601,0.729,1.281,0.899,2.051c0.09,0.39,0.141,0.8,0.16,1.24
			c0.01,0.22,0.01,0.439,0,0.68c-0.02,0.47-0.09,0.96-0.189,1.49c-0.051,0.26-0.12,0.529-0.2,0.81c-0.229,0.84-0.56,1.75-1.011,2.74
			c-1.199,2.649-3.25,5.89-6.399,9.899c-1.181,1.5-2.521,3.121-4.021,4.851c-0.799,0.92-1.59,1.87-2.379,2.8
			c-1.84,2.17-3.66,4.37-5.451,6.58H4v-8.721C4,99.05,5.64,90.92,8.79,83.32C13.72,71.43,19.25,59.05,23.78,51.41l0,0
			c0.02-0.04,0.04-0.07,0.06-0.11c0.19-0.31,0.37-0.62,0.55-0.92c0.04-0.06,0.07-0.11,0.11-0.17c0.17-0.27,0.33-0.53,0.5-0.78
			c0.05-0.08,0.1-0.16,0.15-0.24c0.15-0.23,0.3-0.46,0.45-0.68c0.05-0.07,0.1-0.15,0.15-0.23c0.19-0.28,0.38-0.55,0.57-0.81
			c0.03-0.04,0.06-0.07,0.09-0.11c1.78,0.08,3.57,0.01,5.21-0.07c4.27-0.22,8.66-0.24,12.8-1.4c2.43-0.69,4.75-1.69,6.95-2.92
			c1.46-0.82,2.95-1.91,4.52-2.76c2.38,3.03,5.47,5.44,7.65,8.63c1.819,2.67,3.09,5.71,5.521,7.93c2.779,2.53,6.489,3.58,9.84,5.12
			c2.99,1.38,5.56,2.87,8.64,3.68c-1.05,1.779-1.71,3.289-2,4.58C85.311,71.08,85.27,71.9,85.38,72.63z"/>
		
			<radialGradient id="SVGID_2_" cx="384.5" cy="-320" r="34.8111" gradientTransform="matrix(1 0 0 -1 -290 -251)" gradientUnits="userSpaceOnUse">
			<stop  offset="0" style="stop-color:#546E7A"/>
			<stop  offset="0.3702" style="stop-color:#4C636E"/>
			<stop  offset="1" style="stop-color:#37474F"/>
		</radialGradient>
		<path fill="url(#SVGID_2_)" d="M79.6,116c1.791-2.21,3.601-4.41,5.45-6.58c0.79-0.93,1.58-1.88,2.38-2.8
			c1.51-1.729,2.84-3.341,4.021-4.851c3.149-4.01,5.2-7.25,6.399-9.899c0.45-0.99,0.791-1.899,1.01-2.74
			c0.08-0.28,0.141-0.55,0.201-0.81c0.109-0.53,0.17-1.021,0.189-1.49c0.01-0.23,0.01-0.46,0-0.68c-0.02-0.44-0.07-0.851-0.16-1.24
			c-0.18-0.77-0.49-1.45-0.9-2.051c-0.209-0.299-0.439-0.58-0.699-0.85c-0.77-0.8-1.721-1.449-2.77-2.029
			c-0.521-0.291-1.061-0.57-1.611-0.83c-2.01-0.98-4.119-1.851-5.639-3.08c-0.41-0.34-0.781-0.7-1.091-1.1
			c-0.21-0.271-0.39-0.551-0.54-0.851s-0.27-0.62-0.359-0.96c-0.041-0.17-0.08-0.35-0.11-0.53c-0.11-0.729-0.07-1.55,0.149-2.489
			c0.301-1.291,0.951-2.801,2-4.58c0.621,0.16,1.25,0.299,1.92,0.399c3.461,0.5,6.971,0.319,10.451,0.31
			c3.399-0.01,8.069,0.51,11.31-1.24c0.64,0.49,1.29,0.931,1.95,1.33c2.1,1.25,4.07,3.82,5.879,7.181
			C122.4,79.77,124,86.8,124,93.87V116H79.6z"/>
		
			<linearGradient id="SVGID_3_" gradientUnits="userSpaceOnUse" x1="-165.7207" y1="-303.9233" x2="-144.3861" y2="-373.2609" gradientTransform="matrix(-1 0 0 -1 -65 -251)">
			<stop  offset="0" style="stop-color:#78909C"/>
			<stop  offset="0.427" style="stop-color:#6C8490"/>
			<stop  offset="1" style="stop-color:#546E7A"/>
		</linearGradient>
		<path fill="url(#SVGID_3_)" d="M79.6,116L79.6,116c1.791-2.21,3.601-4.41,5.45-6.58C83.2,111.59,81.38,113.79,79.6,116z"/>
		
			<linearGradient id="SVGID_4_" gradientUnits="userSpaceOnUse" x1="-140.998" y1="-309.9409" x2="-147.998" y2="-369.4409" gradientTransform="matrix(-1 0 0 -1 -65 -251)">
			<stop  offset="0" style="stop-color:#546E7A"/>
			<stop  offset="0.3702" style="stop-color:#4C636E"/>
			<stop  offset="1" style="stop-color:#37474F"/>
		</linearGradient>
		<path fill="url(#SVGID_4_)" d="M79.6,116L79.6,116c1.791-2.21,3.601-4.41,5.45-6.58C83.2,111.59,81.38,113.79,79.6,116z"/>
	</g>
	
		<linearGradient id="SVGID_5_" gradientUnits="userSpaceOnUse" x1="-133.8599" y1="-254.0005" x2="-133.8599" y2="-325.3913" gradientTransform="matrix(-1 0 0 -1 -65 -251)">
		<stop  offset="0" style="stop-color:#E1F5FE"/>
		<stop  offset="0.3507" style="stop-color:#D5F1FD"/>
		<stop  offset="0.9908" style="stop-color:#B4E5FC"/>
		<stop  offset="1" style="stop-color:#B3E5FC"/>
	</linearGradient>
	<path fill="url(#SVGID_5_)" d="M23.78,51.4L23.78,51.4c0.02-0.04,0.04-0.07,0.06-0.11c0.19-0.31,0.37-0.62,0.55-0.92
		c0.04-0.06,0.07-0.11,0.11-0.17c0.17-0.27,0.33-0.53,0.5-0.78c0.05-0.08,0.1-0.16,0.15-0.24c0.15-0.23,0.3-0.46,0.45-0.68
		c0.05-0.07,0.1-0.15,0.15-0.23c0.19-0.28,0.38-0.55,0.57-0.81c0.18-0.25,0.37-0.48,0.56-0.71c0.19-0.22,0.4-0.44,0.6-0.64
		c0.41-0.4,0.85-0.75,1.31-1.05c0.92-0.6,1.91-1,2.94-1.18c0.66-0.11,1.34-0.16,2.03-0.22c1.57-0.12,3.2-0.28,4.77-1.25
		c0.52-0.32,1.04-0.74,1.55-1.27c1.77-1.88,7.92-15.98,13.87-26.26c0.6-1.03,1.19-2.02,1.78-2.95c0.29-0.47,0.59-0.92,0.87-1.36
		c0.58-0.88,1.15-1.69,1.71-2.43c0.84-1.1,1.64-2.03,2.4-2.73C61.75,4.5,62.68,3.98,63.49,4c0.43,0.01,0.84,0.14,1.24,0.37
		c0.789,0.46,1.51,1.32,2.18,2.39c0.34,0.54,0.66,1.13,0.98,1.76c-0.17,0.21-0.17,0.21,0,0c0.01,0.01,0.01,0.02,0.02,0.03
		c2.26,4.49,4.05,10.67,6.35,10.67c4.641,0,4.811,17.69,10.08,20.97l0,0c1.53-1.84,2.86-3.15,3.93-3.78
		c0.48-0.29,0.92-0.48,1.291-0.48c1.789,0,3.609,2.68,5.439,6.46c4.33,7.44,10.24,19.25,18.17,23.969
		c0.43,0.261,0.85,0.57,1.27,0.931c-1.52,3.03-4.149,6.239-8.18,4.92c-7-2.3-10.449,0.11-14.01,4.71
		c-0.4,0.51-0.83,0.891-1.29,1.189c-3.63,2.4-8.84-1.369-10.88-2.799c-2.26-1.58-10.08-3.49-17.11-0.59
		c-0.02,0.01-0.25,0.09-0.34,0.129c-7.12,3.101-11.6-6.89-11.14-17.91c0.46-11.02-5.4-9.87-9.07-7.12
		c-2.83,2.12-13.96,2.88-19.14,2.44C23.44,51.97,23.61,51.69,23.78,51.4z"/>
	
		<linearGradient id="SVGID_6_" gradientUnits="userSpaceOnUse" x1="354" y1="-354.166" x2="354" y2="-328.5191" gradientTransform="matrix(1 0 0 -1 -290 -251)">
		<stop  offset="0" style="stop-color:#37474F"/>
		<stop  offset="1" style="stop-color:#455A64;stop-opacity:0"/>
	</linearGradient>
	<path fill="url(#SVGID_6_)" d="M124,93.87c0-7.07-1.6-14.101-4.96-20.32c-1.44-2.68-2.99-4.84-4.61-6.239c0,0,0,0,0-0.011
		c-0.06-0.06-0.13-0.1-0.189-0.159c-0.131-0.111-0.26-0.221-0.391-0.311c-0.229-0.17-0.459-0.33-0.689-0.471
		c-0.439-0.26-0.87-0.549-1.29-0.85c-0.12-0.08-0.24-0.17-0.351-0.26c-7.1-5.26-12.5-15.94-16.52-22.86
		c-1.83-3.78-3.65-6.46-5.439-6.46c-0.371,0-0.811,0.19-1.291,0.48c-1.06,0.63-2.39,1.94-3.93,3.78l0,0
		C79.07,36.9,78.9,19.22,74.26,19.22c-2.3,0-4.09-6.19-6.35-10.67c-0.01-0.01-0.01-0.02-0.02-0.03c-0.17,0.21-0.17,0.21,0,0
		c-0.32-0.63-0.641-1.22-0.98-1.76c-0.67-1.08-1.391-1.93-2.18-2.39C64.34,4.14,63.93,4.01,63.49,4c-0.82-0.02-1.75,0.5-2.76,1.43
		c-0.76,0.7-1.57,1.62-2.4,2.73c-0.56,0.74-1.13,1.55-1.71,2.43c-0.29,0.44-0.58,0.89-0.87,1.36c-0.59,0.93-1.18,1.92-1.78,2.95
		c-5.95,10.28-12.1,24.38-13.87,26.26c-0.51,0.54-1.02,0.95-1.55,1.27c-1.57,0.97-3.21,1.12-4.77,1.25c-0.7,0.06-1.38,0.1-2.03,0.22
		c-1.03,0.18-2.02,0.58-2.94,1.18c-0.46,0.3-0.9,0.65-1.31,1.05c-0.21,0.2-0.41,0.41-0.6,0.64c-0.19,0.22-0.38,0.46-0.56,0.71
		c-0.19,0.26-0.38,0.53-0.57,0.81c-0.05,0.07-0.1,0.15-0.15,0.23c-0.15,0.22-0.3,0.44-0.45,0.68c-0.05,0.08-0.1,0.16-0.15,0.24
		c-0.16,0.25-0.33,0.52-0.5,0.78c-0.04,0.06-0.07,0.11-0.11,0.17c-0.18,0.3-0.37,0.6-0.55,0.92c-0.02,0.04-0.04,0.07-0.06,0.11l0,0
		c-0.17,0.28-0.34,0.57-0.5,0.86l0,0c-4.43,7.69-9.74,19.58-14.49,31.05C5.64,90.91,4,99.05,4,107.279V116h70.43
		c1.74,1.48,3.99,2.38,6.44,2.38h13.25c2.45,0,4.7-0.899,6.44-2.38H124V93.87z"/>
	<g opacity="0.2">
		<path fill="#424242" d="M108.07,75.529c-0.91,0-1.83-0.149-2.75-0.459c-1.48-0.49-2.801-0.73-3.91-0.73
			c-2.48,0-4.26,1.16-6.79,4.43c-0.56,0.73-1.24,1.351-2,1.86c-1.28,0.851-2.75,1.28-4.37,1.28c-4.01,0-7.88-2.721-9.75-4.02
			l-0.141-0.101c-0.689-0.49-3.529-1.55-7.43-1.55c-2.47,0-4.77,0.43-6.82,1.279l-0.15,0.061l-0.16,0.061
			c-1.23,0.529-2.49,0.81-3.72,0.81c-2.36,0-4.57-1-6.38-2.89c-3.53-3.681-5.52-10.851-5.2-18.71c0.18-4.3-0.75-5.5-0.94-5.69
			c-0.08-0.08-0.16-0.17-0.46-0.17c-0.58,0-1.63,0.33-2.88,1.27c-4.09,3.07-16.23,3.16-17.6,3.16c-1.36,0-2.57-0.04-3.6-0.13
			l-1.33-0.11c0.54-1.01,1.07-1.97,1.59-2.87c0.94,0.08,2.08,0.12,3.34,0.12c5.62,0,13.48-0.82,15.8-2.56
			c1.4-1.05,3.11-1.87,4.68-1.87c2.54,0,4.68,2.16,4.39,8.98c-0.4,9.64,2.97,18.48,8.58,18.48c0.81,0,1.66-0.181,2.55-0.569
			c0.09-0.041,0.31-0.121,0.34-0.131c2.66-1.09,5.431-1.5,7.97-1.5c4.18,0,7.74,1.11,9.15,2.09c1.57,1.101,5.01,3.58,8.17,3.58
			c0.95,0,1.88-0.22,2.721-0.779c0.459-0.301,0.889-0.68,1.289-1.19c2.631-3.39,5.19-5.59,9.16-5.59c1.41,0,3.01,0.28,4.84,0.88
			c0.641,0.21,1.25,0.311,1.82,0.311c3.02,0,5.08-2.681,6.359-5.221c0.73,0.63,1.451,1.43,2.141,2.35
			C113.811,74.471,110.46,75.529,108.07,75.529z"/>
	</g>
	<g opacity="0.2">
		<path fill="#424242" d="M55.27,44.08c0.62,0.68,1.26,1.32,1.88,1.96c1.46,1.49,2.84,2.91,3.91,4.48c0.53,0.77,1.01,1.59,1.52,2.46
			c1.21,2.05,2.46,4.18,4.449,5.99c2.461,2.24,5.33,3.42,8.101,4.56c0.88,0.36,1.7,0.7,2.5,1.07c0.75,0.34,1.47,0.7,2.181,1.041
			c2.16,1.049,4.39,2.139,6.959,2.81c0.84,0.22,1.551,0.37,2.24,0.47c2.34,0.34,4.641,0.38,6.391,0.38c0.83,0,1.66-0.01,2.49-0.021
			c0.67-0.01,1.34-0.02,2.02-0.02h0.119c0.57,0,1.171,0.01,1.801,0.03c0.72,0.021,1.47,0.03,2.23,0.03c2.01,0,4.479-0.12,6.77-0.891
			c0.26,0.17,0.529,0.34,0.79,0.49c1.021,0.609,2.68,2.15,4.771,6.03c3.01,5.579,4.6,12.11,4.6,18.89V113H79.6H7v-5.721
			c0-7.84,1.53-15.51,4.56-22.809c6.01-14.49,10.98-25.091,14.8-31.531l0.15-0.25c0.15-0.25,0.3-0.5,0.45-0.73l0.07-0.1l0.04-0.06
			c0.16-0.25,0.31-0.5,0.47-0.74L27.55,51l0.11-0.17c0.1-0.15,0.19-0.29,0.28-0.43c0.04,0,0.09,0,0.13,0c1.38,0,2.7-0.06,3.7-0.11
			c0.66-0.03,1.32-0.06,1.98-0.09c3.76-0.17,7.65-0.34,11.47-1.42c2.54-0.72,5.1-1.79,7.6-3.19c0.75-0.42,1.49-0.89,2.2-1.35
			C55.12,44.18,55.2,44.13,55.27,44.08 M55.89,40.21c-1.57,0.85-3.06,1.94-4.52,2.76c-2.2,1.23-4.52,2.24-6.95,2.92
			c-4.13,1.17-8.53,1.18-12.8,1.4c-1.13,0.06-2.32,0.11-3.54,0.11c-0.55,0-1.11-0.01-1.67-0.03c-0.03,0.04-0.06,0.07-0.09,0.11
			c-0.19,0.26-0.38,0.53-0.57,0.81c-0.05,0.07-0.1,0.15-0.15,0.23c-0.15,0.22-0.3,0.44-0.45,0.68c-0.05,0.08-0.1,0.16-0.15,0.24
			c-0.16,0.25-0.33,0.52-0.5,0.78c-0.04,0.06-0.07,0.11-0.11,0.17c-0.18,0.3-0.37,0.6-0.55,0.92c-0.02,0.04-0.04,0.07-0.06,0.11l0,0
			c-4.53,7.64-10.06,20.02-14.99,31.91C5.64,90.91,4,99.05,4,107.279V116h75.6H124V93.87c0-7.07-1.6-14.101-4.96-20.32
			c-1.819-3.36-3.78-5.94-5.88-7.18c-0.66-0.39-1.311-0.841-1.95-1.33c-2.04,1.101-4.64,1.3-7.14,1.3
			c-1.42,0-2.801-0.061-4.03-0.061c-0.05,0-0.09,0-0.14,0c-1.5,0.011-3,0.041-4.49,0.041c-1.99,0-3.98-0.061-5.96-0.35
			c-0.671-0.101-1.3-0.24-1.921-0.4c-3.079-0.801-5.649-2.3-8.639-3.68c-3.341-1.54-7.061-2.59-9.841-5.12
			c-2.43-2.22-3.7-5.26-5.52-7.93C61.36,45.64,58.27,43.23,55.89,40.21L55.89,40.21z"/>
	</g>
	<path opacity="0.2" fill="#EEEEEE" enable-background="new    " d="M36.15,58.58c0.07-0.46-0.57-0.66-0.77-0.24
		c-2.66,5.64-13.77,22.189-17.77,29.25c-0.39,0.689,0.44,1.42,1.07,0.95c1.93-1.431,5.72-4.78,5.93-5.78
		c0.3-1.43,2.96-5.439,3.81-6.699c0.17-0.24,0.34-0.48,0.52-0.711l3.49-4.39c0.68-0.86,1.17-1.851,1.42-2.92L36.15,58.58z"/>
	<path opacity="0.2" fill="#EEEEEE" enable-background="new    " d="M45.04,54.98c0.16-0.34-0.24-0.67-0.54-0.45l-3.66,2.62
		c-0.26,0.27-0.45,0.6-0.53,0.97l-2.87,11.42c0,0.45,0.63,0.54,0.76,0.11L45.04,54.98z"/>
	<path opacity="0.2" fill="#EEEEEE" enable-background="new    " d="M61.71,79.189c0.13-0.35-0.34-0.609-0.57-0.31
		c-3,4.03-14.4,15.33-18.68,20.28c-0.42,0.48,0.12,1.189,0.7,0.92c1.75-0.82,5.28-2.87,5.6-3.62c0.46-1.09,3.2-3.819,4.07-4.681
		c0.17-0.17,0.34-0.319,0.52-0.479l3.45-2.909c0.67-0.57,1.22-1.281,1.59-2.08L61.71,79.189z"/>
	<path opacity="0.2" fill="#EEEEEE" enable-background="new    " d="M48.78,84.62c0.27-0.21,0.09-0.64-0.25-0.591l-4.1,0.58
		c-0.33,0.111-0.62,0.301-0.84,0.57l-7.2,8.09c-0.19,0.36,0.29,0.711,0.57,0.41L48.78,84.62z"/>
	<path opacity="0.2" fill="#EEEEEE" enable-background="new    " d="M66.57,77.55c0.13-0.2,0.369-0.1,0.4,0.181l0.379,4.899
		c0.11,0.31,0.11,0.69-0.02,0.979l-3,6.891l0.391-4.2c0.02-0.19-0.131-0.319-0.241-0.2l-3.88,4.45c-0.19,0.19-0.41-0.14-0.87-0.68
		L66.57,77.55z"/>
	<path opacity="0.2" fill="#424242" enable-background="new    " d="M110.471,76.33c-0.07-0.28,0.17-0.28,0.409-0.01l4,4.88
		c0.31,0.26,0.591,0.659,0.729,1.021l3.23,8.59l-2.949-4.531c-0.141-0.209-0.33-0.27-0.311-0.09l0.779,6.511
		c0.021,0.28-0.389,0.05-1.109-0.28L110.471,76.33z"/>
	<g>
		
			<linearGradient id="SVGID_7_" gradientUnits="userSpaceOnUse" x1="363.8594" y1="-309.3711" x2="352.6925" y2="-270.2038" gradientTransform="matrix(1 0 0 -1 -290 -251)">
			<stop  offset="0" style="stop-color:#81D4FA"/>
			<stop  offset="0.1491" style="stop-color:#9ADDFB"/>
			<stop  offset="0.4654" style="stop-color:#CCEEFD"/>
			<stop  offset="0.6485" style="stop-color:#D5F1FD"/>
			<stop  offset="1" style="stop-color:#E1F5FE"/>
		</linearGradient>
		<path fill="url(#SVGID_7_)" d="M62.88,74.76c1.39-3.859,4.32-14.03,0.87-23.51c-4.22-11.58-8.79-27.23,4.15-42.69
			c2.26,4.49,4.05,10.67,6.35,10.67c4.641,0,4.811,17.69,10.08,20.97c-0.189,0.26-15.52,21.4-21.38,34.53
			C62.93,74.74,62.91,74.75,62.88,74.76z"/>
		
			<linearGradient id="SVGID_8_" gradientUnits="userSpaceOnUse" x1="335.5898" y1="-264.2505" x2="335.5898" y2="-317.538" gradientTransform="matrix(1 0 0 -1 -290 -251)">
			<stop  offset="0" style="stop-color:#FFFFFF"/>
			<stop  offset="0.4943" style="stop-color:#F3FBFF"/>
			<stop  offset="1" style="stop-color:#E1F5FE"/>
		</linearGradient>
		<path fill="url(#SVGID_8_)" d="M63.75,51.25c3.45,9.47,0.52,19.641-0.87,23.51c-0.09,0.04-0.18,0.061-0.26,0.1
			c-7.12,3.101-11.6-6.889-11.14-17.909c0.46-11.02-5.4-9.87-9.07-7.12c-2.83,2.12-13.96,2.88-19.14,2.44
			c0.17-0.29,0.34-0.58,0.5-0.86l0,0c0.02-0.04,0.04-0.07,0.06-0.11c0.19-0.31,0.37-0.62,0.55-0.92c0.04-0.06,0.07-0.11,0.11-0.17
			c0.17-0.27,0.33-0.53,0.5-0.78c0.05-0.08,0.1-0.16,0.15-0.24c0.15-0.23,0.3-0.46,0.45-0.68c0.05-0.07,0.1-0.15,0.15-0.23
			c0.19-0.28,0.38-0.55,0.57-0.81c0.18-0.25,0.37-0.48,0.56-0.71c0.19-0.22,0.4-0.44,0.6-0.64c0.41-0.4,0.85-0.75,1.31-1.05
			c0.92-0.6,1.91-1,2.94-1.18c0.66-0.11,1.34-0.16,2.03-0.22c1.57-0.12,3.2-0.28,4.77-1.25c0.52-0.32,1.04-0.74,1.55-1.27
			c1.77-1.88,7.92-15.98,13.87-26.26c0.6-1.03,1.19-2.02,1.78-2.95c0.29-0.47,0.59-0.92,0.87-1.36c0.58-0.88,1.15-1.69,1.71-2.43
			c0.84-1.1,1.64-2.03,2.4-2.73C61.75,4.5,62.68,3.98,63.49,4c0.43,0.01,0.84,0.14,1.24,0.37c0.789,0.46,1.51,1.32,2.18,2.39
			c0.34,0.54,0.66,1.13,0.98,1.76c-0.17,0.21-0.17,0.21,0,0c0.01,0.01,0.01,0.02,0.02,0.03C54.96,24.02,59.53,39.67,63.75,51.25z
			 M62.8,74.67c1.63-4.689,2.4-9.061,2.341-13.39C65.2,65.609,64.43,69.98,62.8,74.67L62.8,74.67z"/>
	</g>
	<g opacity="0.2">
		<path fill="#424242" d="M80.82,40.82c-0.26-0.2-0.49-0.43-0.67-0.71c-1.851-2.78-2.91-6.77-3.94-10.67
			c-0.62-2.34-1.63-6.15-2.45-7.24c-3.16-0.33-4.8-3.83-6.58-7.97l-0.039,0.05l-2.07-4.3C64.96,9.75,64.85,9.44,64.8,9.07
			c-0.14-0.26-0.28-0.5-0.42-0.72c-0.44-0.7-0.76-1.06-0.95-1.24c-0.15,0.1-0.37,0.26-0.65,0.52c-0.6,0.55-1.28,1.33-2.04,2.33
			c-0.5,0.66-1.04,1.43-1.6,2.27c-0.28,0.42-0.56,0.85-0.84,1.3c-0.55,0.87-1.12,1.83-1.72,2.86c-2.94,5.08-5.99,11.23-8.44,16.17
			c-3.23,6.5-4.7,9.43-5.84,10.64c-0.66,0.7-1.38,1.29-2.15,1.77c-2.23,1.38-4.47,1.56-6.11,1.69l-0.13,0.01
			c-0.59,0.05-1.15,0.09-1.63,0.17c-0.62,0.11-1.23,0.35-1.8,0.73c-0.3,0.2-0.6,0.43-0.88,0.71c-0.49,0.49-2.47,2.92-2.89,4.1l0,0
			c-1.28,0-2.45-0.04-3.42-0.12c0.17-0.29,0.34-0.58,0.5-0.86l0,0c0.02-0.04,0.04-0.07,0.06-0.11c0.19-0.31,0.37-0.62,0.55-0.92
			c0.04-0.06,0.07-0.11,0.11-0.17c0.17-0.27,0.33-0.53,0.5-0.78c0.05-0.08,0.1-0.16,0.15-0.24c0.15-0.23,0.3-0.46,0.45-0.68
			c0.05-0.07,0.1-0.15,0.15-0.23c0.19-0.28,0.38-0.55,0.57-0.81c0.18-0.25,0.37-0.48,0.56-0.71c0.19-0.22,0.4-0.44,0.6-0.64
			c0.41-0.4,0.85-0.75,1.31-1.05c0.92-0.6,1.91-1,2.94-1.18c0.66-0.11,1.34-0.16,2.03-0.22c1.57-0.12,3.2-0.28,4.77-1.25
			c0.52-0.32,1.04-0.74,1.55-1.27c1.77-1.88,7.92-15.98,13.87-26.26c0.6-1.03,1.19-2.02,1.78-2.95c0.29-0.47,0.59-0.92,0.87-1.36
			c0.58-0.88,1.15-1.69,1.71-2.43c0.84-1.1,1.64-2.03,2.4-2.73c1-0.91,1.91-1.43,2.72-1.43c0.01,0,0.03,0,0.04,0
			c0.43,0.01,0.84,0.14,1.241,0.37c0.789,0.46,1.51,1.32,2.18,2.39c0.34,0.54,0.66,1.13,0.979,1.76c-0.08,0.1-0.12,0.16-0.12,0.16
			s0.04-0.05,0.12-0.16c0.011,0.01,0.011,0.02,0.021,0.03c2.26,4.49,4.05,10.67,6.35,10.67c4.641,0,4.811,17.69,10.08,20.97
			c-0.04,0.05-0.59,0.81-1.49,2.09C82.33,41.96,81.359,41.23,80.82,40.82z"/>
	</g>
	<g>
		
			<linearGradient id="SVGID_9_" gradientUnits="userSpaceOnUse" x1="367.9863" y1="-295.5" x2="367.9863" y2="-325.2766" gradientTransform="matrix(1 0 0 -1 -290 -251)">
			<stop  offset="0" style="stop-color:#FFFFFF"/>
			<stop  offset="0.4943" style="stop-color:#F3FBFF"/>
			<stop  offset="1" style="stop-color:#E1F5FE"/>
		</linearGradient>
		<path fill="url(#SVGID_9_)" d="M90.08,38.92c0.24,0.38,0.47,0.78,0.689,1.2c0.221,0.42,0.431,0.86,0.631,1.32
			c0.3,0.69,0.57,1.42,0.8,2.2c0.1,0.36,0.2,0.72,0.28,1.1c0.039,0.17,0.08,0.34,0.119,0.51c0.061,0.28,0.11,0.56,0.15,0.85
			c0.09,0.58,0.16,1.17,0.2,1.79c0.021,0.31,0.03,0.62,0.04,0.94c0.01,0.64,0,1.29-0.051,1.97c-0.069,1.01-0.219,2.07-0.449,3.17
			c-0.09,0.44-0.2,0.89-0.32,1.34c-0.08,0.3-0.16,0.61-0.26,0.92c-0.23,0.77-0.51,1.57-0.82,2.38c-0.48,1.22-1.05,2.48-1.74,3.79
			c-0.459,0.87-0.97,1.76-1.529,2.68c-1.23,1.99-1.961,3.66-2.28,5.061c-0.22,0.939-0.261,1.76-0.149,2.489
			c0.029,0.181,0.06,0.36,0.109,0.53c0.09,0.34,0.21,0.66,0.359,0.96c0.15,0.3,0.33,0.58,0.541,0.85c0.31,0.4,0.68,0.761,1.09,1.101
			c0.97,0.789,2.199,1.43,3.48,2.05c-3.631,2.399-8.841-1.37-10.881-2.8c-2.26-1.58-10.08-3.49-17.11-0.59
			C68.82,61.6,84.141,40.46,84.33,40.2l0,0c1.529-1.84,2.859-3.15,3.93-3.78c0.36,0.43,0.73,0.9,1.09,1.41
			C89.6,38.17,89.84,38.53,90.08,38.92z"/>
		
			<linearGradient id="SVGID_10_" gradientUnits="userSpaceOnUse" x1="381.4482" y1="-304.7422" x2="388.6149" y2="-318.7421" gradientTransform="matrix(1 0 0 -1 -290 -251)">
			<stop  offset="0" style="stop-color:#E1F5FE"/>
			<stop  offset="0.3507" style="stop-color:#D5F1FD"/>
			<stop  offset="0.9908" style="stop-color:#B4E5FC"/>
			<stop  offset="1" style="stop-color:#B3E5FC"/>
		</linearGradient>
		<path fill="url(#SVGID_10_)" d="M85.529,70.141c0.32-1.4,1.051-3.061,2.281-5.061c0.56-0.91,1.069-1.8,1.529-2.68
			c0.689-1.31,1.27-2.57,1.74-3.79c0.32-0.81,0.59-1.61,0.82-2.38c0.09-0.31,0.18-0.62,0.26-0.92c0.119-0.45,0.23-0.9,0.32-1.34
			c0.229-1.1,0.369-2.16,0.449-3.17c0.051-0.68,0.061-1.33,0.051-1.97c-0.01-0.32-0.021-0.63-0.041-0.94
			c-0.039-0.62-0.109-1.21-0.199-1.79c-0.051-0.29-0.1-0.57-0.15-0.85c-0.04-0.17-0.08-0.34-0.119-0.51
			c-0.091-0.37-0.181-0.74-0.281-1.1c-0.229-0.78-0.5-1.51-0.799-2.2c-0.201-0.46-0.41-0.9-0.631-1.32
			c-0.22-0.42-0.449-0.82-0.689-1.2s-0.48-0.74-0.721-1.09c-0.359-0.51-0.729-0.98-1.09-1.41c0.48-0.29,0.92-0.48,1.29-0.48
			c1.79,0,3.61,2.68,5.44,6.46c4.33,7.44,10.24,19.25,18.17,23.97c0.43,0.26,0.85,0.569,1.27,0.93c-1.52,3.03-4.15,6.24-8.18,4.921
			c-7-2.301-10.45,0.109-14.01,4.709c-0.4,0.51-0.83,0.891-1.29,1.19c-1.28-0.62-2.5-1.261-3.479-2.05
			c-0.41-0.34-0.781-0.7-1.091-1.1c-0.21-0.271-0.39-0.551-0.54-0.851s-0.27-0.62-0.359-0.96c-0.041-0.17-0.08-0.35-0.11-0.53
			C85.27,71.9,85.311,71.08,85.529,70.141z"/>
	</g>
	<g opacity="0.2">
		<path fill="#424242" d="M84.33,40.2C84.34,40.2,84.34,40.2,84.33,40.2c1.529-1.84,2.87-3.15,3.93-3.78
			c0.48-0.29,0.92-0.48,1.29-0.48c1.79,0,3.61,2.68,5.44,6.46c4.33,7.44,10.24,19.25,18.17,23.97c0.43,0.26,0.85,0.569,1.27,0.93
			c-0.33,0.65-0.699,1.3-1.13,1.921c-0.39-0.15-0.94-0.351-1.45-0.541c-1.1-0.4-2.14-0.979-3.05-1.72
			c-6.159-5-10.819-13.23-14.67-20.02c-0.601-1.07-1.18-2.08-1.729-3.03l-0.061-0.1l-0.05-0.1c-1.38-2.86-2.29-4.05-2.761-4.53
			c-0.469,0.34-1.379,1.13-2.85,2.9C85.66,43.49,74.17,59,67.311,72.48c-0.181,0.359-0.32,0.74-0.461,1.119
			c-1.3,0.24-2.609,0.61-3.899,1.141C68.82,61.6,84.141,40.46,84.33,40.2z"/>
	</g>
	<path fill="#E1F5FE" d="M52.53,29.08c0.12-0.22,0.32-0.1,0.34,0.21l0.2,5.36c0.09,0.34,0.07,0.75-0.05,1.07l-2.81,7.45l0.45-4.58
		c0.02-0.21-0.11-0.35-0.2-0.23l-3.52,4.77c-0.17,0.2-0.36-0.17-0.74-0.77L52.53,29.08z"/>
	<path fill="#E1F5FE" d="M87.98,43.3c0.119-0.2,0.42-0.18,0.51,0.04l1.31,3.87c0.19,0.22,0.25,0.53,0.14,0.8l-2.39,6.38l-0.271-3.5
		c-0.01-0.16-0.209-0.22-0.319-0.1l-3.87,4.64c-0.189,0.2-0.52-0.01-1.16-0.32L87.98,43.3z"/>
	<path fill="#E1F5FE" d="M63.25,31.19c-0.01-0.29,0.41-0.36,0.49-0.08c1.18,3.71,6.689,14.86,8.58,19.56
		c0.18,0.46-0.391,0.84-0.74,0.5c-1.08-1.04-3.141-3.43-3.189-4.06c-0.07-0.91-1.381-3.61-1.801-4.45
		c-0.08-0.16-0.17-0.32-0.26-0.48l-1.79-3c-0.35-0.59-0.57-1.24-0.64-1.92L63.25,31.19z"/>
	<path fill="#E1F5FE" d="M65.35,19.86c-0.07-0.28,0.17-0.28,0.41-0.01l4.03,4.92c0.319,0.27,0.601,0.66,0.739,1.03l3.261,8.66
		l-2.97-4.57c-0.141-0.21-0.34-0.27-0.32-0.09l0.79,6.56c0.021,0.28-0.39,0.05-1.12-0.28L65.35,19.86z"/>
	<g>
		
			<linearGradient id="SVGID_11_" gradientUnits="userSpaceOnUse" x1="354" y1="-345.667" x2="354" y2="-374.6114" gradientTransform="matrix(1 0 0 -1 -290 -251)">
			<stop  offset="0" style="stop-color:#E1F5FE"/>
			<stop  offset="0.2332" style="stop-color:#DCF3FE"/>
			<stop  offset="0.4916" style="stop-color:#CFEFFD"/>
			<stop  offset="0.7613" style="stop-color:#B9E7FC"/>
			<stop  offset="0.8222" style="stop-color:#B3E5FC"/>
			<stop  offset="1" style="stop-color:#B3E5FC"/>
		</linearGradient>
		<path fill="url(#SVGID_11_)" d="M124,92.57c0-1.9-2-3.16-3.7-2.32c-4.06,2-7.409,5.21-9.59,9.17c-0.59,0.689-1.069,1.52-1.42,2.51
			c-0.021,0.07-0.05,0.141-0.069,0.211c-0.171,0.51-0.701,0.779-1.23,0.649c-0.32-0.08-0.641-0.12-0.98-0.12
			c-1.34,0-2.57,0.63-3.57,1.7c-0.709,0.76-1.91,0.79-2.729,0.149c-2.149-1.66-4.81-2.64-7.69-2.64c-2.199,0-4.27,0.58-6.08,1.58
			c-0.869,0.479-1.949,0.181-2.539-0.62c-3.561-4.84-9.18-7.98-15.521-7.98c-4.8,0-9.18,1.801-12.58,4.771
			c-0.38,0.34-0.94,0.34-1.33,0.011c-0.9-0.781-1.95-1.23-3.08-1.23c-1.1,0-2.13,0.43-3.01,1.17c-0.34,0.29-0.82,0.3-1.2,0.061
			c-2.19-1.41-4.77-2.23-7.54-2.23c-3.9,0-7.42,1.619-9.99,4.23c-0.39,0.399-1.02,0.369-1.43-0.021c-0.95-0.92-2.1-1.47-3.34-1.47
			c-1.36,0-2.61,0.649-3.61,1.74c-0.39,0.43-1.06,0.469-1.45,0.049c-3.57-3.84-8.59-6.239-14.15-6.22C4.96,95.76,4,96.77,4,97.98
			C4,104.5,4,124,4,124h109.029H124V92.57z"/>
	</g>
	<g opacity="0.2">
		<path fill="#424242" d="M121,93.26V121h-7.971H7V98.77c4.23,0.201,8.16,2.041,11.13,5.24c0.74,0.801,1.79,1.26,2.88,1.26
			c1.12,0,2.21-0.479,2.97-1.31c0.32-0.351,0.83-0.771,1.4-0.771c0.4,0,0.83,0.211,1.25,0.621c0.76,0.739,1.77,1.149,2.82,1.149
			c1.07,0,2.08-0.42,2.83-1.18c2.12-2.15,4.91-3.341,7.85-3.341c2.09,0,4.13,0.61,5.91,1.75c0.66,0.42,1.42,0.65,2.19,0.65
			c0.94,0,1.84-0.33,2.56-0.93c0.37-0.311,0.74-0.471,1.08-0.471c0.36,0,0.74,0.17,1.12,0.5c0.73,0.631,1.66,0.98,2.62,0.98
			c0.97,0,1.91-0.35,2.65-1c2.97-2.6,6.74-4.029,10.6-4.029c5.17,0,9.951,2.459,13.101,6.75c0.96,1.299,2.479,2.08,4.069,2.08
			c0.82,0,1.641-0.211,2.351-0.611c1.44-0.799,2.99-1.199,4.62-1.199c2.13,0,4.15,0.699,5.859,2.01c0.9,0.689,2.021,1.07,3.15,1.07
			c1.37,0,2.69-0.57,3.61-1.551c0.319-0.34,0.819-0.75,1.38-0.75c0.09,0,0.18,0.011,0.27,0.031c0.32,0.079,0.641,0.109,0.961,0.109
			c1.729,0,3.26-1.1,3.81-2.73l0.06-0.18c0.211-0.6,0.5-1.12,0.871-1.55l0.199-0.24l0.15-0.271C115.12,97.62,117.76,95.01,121,93.26
			 M121.42,89.99c-0.37,0-0.76,0.08-1.12,0.27c-4.06,2-7.409,5.211-9.59,9.17c-0.59,0.69-1.069,1.521-1.42,2.51
			c-0.021,0.07-0.05,0.141-0.069,0.211c-0.141,0.43-0.531,0.689-0.971,0.689c-0.09,0-0.17-0.01-0.26-0.029
			c-0.32-0.08-0.641-0.121-0.98-0.121c-1.34,0-2.57,0.631-3.57,1.701c-0.379,0.399-0.89,0.6-1.42,0.6c-0.459,0-0.93-0.15-1.31-0.45
			c-2.149-1.66-4.81-2.64-7.69-2.64c-2.199,0-4.27,0.58-6.08,1.58c-0.279,0.16-0.59,0.229-0.899,0.229
			c-0.63,0-1.25-0.31-1.649-0.851C80.83,98.02,75.21,94.88,68.87,94.88c-4.8,0-9.18,1.8-12.58,4.771c-0.19,0.17-0.43,0.26-0.67,0.26
			c-0.23,0-0.47-0.08-0.66-0.25c-0.9-0.78-1.95-1.23-3.08-1.23c-1.1,0-2.13,0.43-3.01,1.17c-0.18,0.15-0.4,0.23-0.63,0.23
			c-0.2,0-0.39-0.061-0.57-0.17c-2.19-1.41-4.77-2.23-7.54-2.23c-3.9,0-7.42,1.62-9.99,4.23c-0.19,0.189-0.44,0.29-0.69,0.29
			c-0.26,0-0.53-0.101-0.74-0.3c-0.95-0.92-2.1-1.471-3.34-1.471c-1.36,0-2.61,0.65-3.61,1.74c-0.21,0.221-0.49,0.34-0.77,0.34
			c-0.25,0-0.5-0.1-0.68-0.3c-3.55-3.83-8.54-6.22-14.08-6.22c-0.03,0-0.05,0-0.08,0C4.96,95.76,4,96.77,4,97.98
			C4,104.5,4,124,4,124h109.029H124V92.57C124,91.08,122.77,89.99,121.42,89.99L121.42,89.99z"/>
	</g>
	<path fill="#E1F5FE" d="M50.2,106.91c3.02,0.93,4.54,3.57,4.13,6.64c-0.28,2.14,3.07,2.2,3.35,0.08
		c0.19-1.409,0.04-2.771-0.37-4.01c4.74-0.011,8.82,2.53,10.879,6.87c0.931,1.949,3.871,0.359,2.951-1.59
		c-2.621-5.521-8.291-8.93-14.391-8.621c-0.44,0.021-0.79,0.191-1.06,0.431c-1.15-1.38-2.72-2.45-4.57-3.021
		C49.07,103.05,48.14,106.27,50.2,106.91z"/>
	<path fill="#E1F5FE" d="M106.05,111.43c2.101,0.711,3.11,2.58,2.771,4.721c-0.24,1.49,2.1,1.59,2.34,0.119
		c0.16-0.979,0.08-1.93-0.18-2.81c3.31,0.08,6.119,1.931,7.479,5c0.61,1.38,2.7,0.319,2.09-1.05c-1.729-3.91-5.63-6.4-9.899-6.29
		c-0.311,0.01-0.561,0.12-0.75,0.28c-0.78-0.99-1.86-1.76-3.141-2.19C105.33,108.721,104.62,110.95,106.05,111.43z"/>
	<path fill="#E1F5FE" d="M24.03,109.779c-4.55,0.101-8.07,2.941-9.2,7.371c-0.47,1.84-3.33,1.16-2.87-0.68
		c1.45-5.681,6.11-9.5,11.99-9.631C25.85,106.8,25.93,109.74,24.03,109.779z"/>
</g>
</svg>
